<?xml version="1.0" encoding="UTF-8"?><svg xmlns="http://www.w3.org/2000/svg" xmlns:xlink="http://www.w3.org/1999/xlink" height="496.1" preserveAspectRatio="xMidYMid meet" version="1.0" viewBox="1.2 8.0 509.7 496.1" width="509.7" zoomAndPan="magnify"><g clip-rule="evenodd" fill-rule="evenodd"><g id="change1_1"><path d="M290.845,110c15.451,3.677,30.209,9.803,43.733,18.13l28.418-12.621l33.494,33.493l-12.617,28.409 c8.33,13.527,14.456,28.29,18.134,43.745L431,232.317v47.365l-29,11.163c-3.677,15.451-9.804,30.209-18.131,43.733l12.621,28.418 l-33.492,33.494l-28.409-12.617c-13.527,8.33-28.29,14.456-43.745,18.133L279.684,431h-47.367L221.154,402 c-15.452-3.677-30.209-9.803-43.733-18.13l-28.418,12.621l-33.494-33.492l12.617-28.409c-8.33-13.527-14.455-28.291-18.133-43.745 L81,279.683v-47.366l28.997-11.162c3.677-15.452,9.803-30.212,18.132-43.737l-12.62-28.415l33.493-33.495l28.418,12.622 c13.525-8.327,28.282-14.453,43.734-18.13l11.163-29h47.366L290.845,110z" fill="#ffe177"/></g><g id="change2_1"><path d="M177.421,383.869l-28.418,12.621l-4.398-4.398l26.633-11.829C173.272,381.516,175.334,382.717,177.421,383.869 L177.421,383.869z M290.845,110c15.243,3.627,29.811,9.638,43.185,17.794c0.178,0.119,0.36,0.232,0.548,0.336l-8.118,3.606 c-13.524-8.327-34.465-18.059-49.916-21.736l-11.162-29h14.301L290.845,110L290.845,110z M144.604,119.907l4.399-4.398 l28.418,12.622c-2.087,1.152-4.149,2.354-6.183,3.606L144.604,119.907L144.604,119.907z M353.093,119.908l9.903-4.398 l33.494,33.493l-12.617,28.409c8.33,13.527,14.456,28.29,18.134,43.745L431,232.317v47.365l-29,11.163 c-3.677,15.451-9.804,30.209-18.131,43.733l12.621,28.418l-33.492,33.494l-9.903-4.398l29.095-29.096l-12.621-28.418 c8.328-13.524,14.454-28.282,18.131-43.733l29-11.163v-47.365l-28.993-11.16c-3.678-15.455-9.804-30.218-18.134-43.745 l12.617-28.409L353.093,119.908L353.093,119.908z M334.035,384.212c-13.376,8.157-27.947,14.167-43.192,17.795L279.684,431h-14.301 l11.159-28.994c15.454-3.678,36.399-13.409,49.926-21.739l8.119,3.606C334.401,383.977,334.216,384.09,334.035,384.212z" fill="#ffd064"/></g><g id="change3_1"><circle cx="255.999" cy="256" fill="#eceff1" r="89.83"/></g><g id="change4_1"><path d="M255.999,166.17c2.123,0,4.227,0.079,6.313,0.224c-46.664,3.24-83.517,42.118-83.517,89.606 c0,47.488,36.852,86.365,83.517,89.606c-2.086,0.145-4.19,0.224-6.313,0.224c-49.611,0-89.83-40.22-89.83-89.83 C166.169,206.389,206.388,166.17,255.999,166.17z" fill="#d1d1d6"/></g><g id="change5_1"><path d="M244.202,263.924l43.68-44.115c5.17-5.222,13.605-5.237,18.812-0.058c5.206,5.177,5.222,13.589,0.058,18.801 c-17.712,17.876-35.305,35.871-53.1,53.666c-5.202,5.202-13.64,5.202-18.842,0l-29.522-29.522c-5.202-5.202-5.202-13.64,0-18.842 c5.202-5.202,13.641-5.202,18.843,0L244.202,263.924z" fill="#8ac9fe"/></g><g id="change6_1"><path d="M256.663,488.011c4.401,0,7.969,3.568,7.969,7.969c0,4.401-3.568,7.969-7.969,7.969 c-25.866,0.093-51.857-3.842-76.972-11.966c-24.297-7.86-47.755-19.608-69.466-35.388l-0.01-0.007 c-55.379-40.253-89.204-99.15-99.122-161.834c-9.919-62.692,4.068-129.155,44.313-184.528l0.004-0.006 c14.934-20.547,32.475-38.145,51.854-52.674c15.253-11.435,31.594-20.936,48.654-28.449l-18.253-4.576 c-4.28-1.07-6.882-5.407-5.812-9.687c1.07-4.28,5.407-6.882,9.687-5.812l42.944,10.767c4.28,1.07,6.882,5.407,5.812,9.687 c-0.191,0.765-0.488,1.477-0.869,2.123l-20.564,38.77c-2.054,3.9-6.881,5.397-10.781,3.344c-3.9-2.054-5.397-6.881-3.344-10.781 l10.945-20.635c-17.237,7.256-33.666,16.611-48.856,28c-17.962,13.466-34.276,29.827-48.243,48.976 c-0.142,0.218-0.296,0.431-0.462,0.637c-37.505,51.778-50.537,113.83-41.279,172.345c9.259,58.519,40.805,113.516,92.449,151.177 c0.22,0.144,0.434,0.3,0.642,0.468c20.281,14.687,42.1,25.607,64.632,32.896C208.106,484.409,232.451,488.097,256.663,488.011 L256.663,488.011z M374.335,487.479l-18.27-4.581c17.366-7.634,33.946-17.298,49.35-28.929 c19.086-14.411,36.393-31.849,51.18-52.194c40.244-55.373,54.232-121.837,44.313-184.529 c-9.918-62.687-43.747-121.588-99.132-161.841c-21.712-15.78-45.171-27.53-69.471-35.39C307.19,11.892,281.2,7.957,255.337,8.052 c-4.401,0-7.969,3.568-7.969,7.969c0,4.401,3.568,7.969,7.969,7.969c24.21-0.089,48.554,3.599,72.093,11.214 c22.658,7.329,44.594,18.331,64.971,33.14c51.827,37.667,83.479,92.769,92.756,151.404c9.276,58.631-3.824,120.815-41.5,172.654 c-13.834,19.034-30.02,35.343-47.867,48.819c-15.421,11.644-32.064,21.17-49.487,28.51l10.959-20.661 c2.054-3.9,0.557-8.728-3.344-10.781c-3.901-2.054-8.728-0.557-10.781,3.344l-20.564,38.77c-0.381,0.647-0.678,1.358-0.869,2.123 c-1.07,4.28,1.532,8.618,5.812,9.687l42.944,10.768c4.28,1.07,8.618-1.532,9.687-5.812 C381.217,492.887,378.615,488.549,374.335,487.479z" fill="#a79ba7"/></g></g></svg>