<?xml version="1.0" encoding="UTF-8"?><svg xmlns="http://www.w3.org/2000/svg" xmlns:xlink="http://www.w3.org/1999/xlink" height="200.0" preserveAspectRatio="xMidYMid meet" version="1.0" viewBox="0.0 0.0 200.0 200.0" width="200.0" zoomAndPan="magnify"><g id="change1_1"><circle cx="100" cy="100" fill="#ffd200" r="98.1"/></g><g id="change2_1"><circle cx="100" cy="100" fill="#ffb400" r="72.2"/></g><g fill="#ffa000" id="change3_1"><path d="M100,174c-40.8,0-74-33.2-74-74c0-40.8,33.2-74,74-74c40.8,0,74,33.2,74,74S140.8,174,100,174z M100,29.7 c-38.7,0-70.3,31.5-70.3,70.3s31.5,70.3,70.3,70.3s70.3-31.5,70.3-70.3C170.3,61.3,138.7,29.7,100,29.7z" fill="inherit"/><path d="M100,200C44.9,200,0,155.1,0,100S44.9,0,100,0c55.1,0,100,44.9,100,100C200,155.1,155.1,200,100,200z M100,3.7 C46.9,3.7,3.7,46.9,3.7,100s43.2,96.3,96.3,96.3s96.3-43.2,96.3-96.3S153.1,3.7,100,3.7z" fill="inherit"/><path d="M97.7,192.9L97.7,192.9c-1.3,0-2.4-1.1-2.3-2.5l0.6-11.8c0.1-1.2,1-2.1,2.2-2.1l0,0c1.2,0,2.2,1,2.1,2.2 l-0.2,11.8C100.1,191.9,99,193,97.7,192.9z M115.6,189.3l-2.1-11.9c-0.2-1.1,0.5-2.1,1.6-2.3c0,0,0,0,0,0c1.1-0.2,2.1,0.4,2.3,1.5 l2.7,11.7c0.3,1.3-0.5,2.5-1.8,2.8c0,0-0.1,0-0.1,0C117,191.4,115.8,190.6,115.6,189.3z M77.1,190.1 C77.1,190.1,77.1,190.1,77.1,190.1c-1.3-0.3-2.1-1.7-1.7-2.9l3.2-11.6c0.3-1,1.4-1.6,2.4-1.4c0,0,0,0,0,0c1.1,0.3,1.7,1.3,1.5,2.4 L80,188.3C79.7,189.6,78.4,190.4,77.1,190.1z M135.1,183.6l-4.7-11.1c-0.4-1,0-2.1,1-2.6c0,0,0,0,0,0c1-0.4,2.2,0,2.6,0.9l5.2,10.8 c0.6,1.2,0.1,2.6-1.1,3.1c0,0-0.1,0-0.1,0C136.9,185.3,135.6,184.8,135.1,183.6z M57.6,182.7C57.6,182.7,57.6,182.7,57.6,182.7 c-1.2-0.6-1.6-2.1-1-3.2l5.8-10.6c0.5-1,1.7-1.3,2.7-0.8c0,0,0,0,0,0c1,0.5,1.4,1.7,0.9,2.6l-5.2,10.8 C60.2,182.8,58.8,183.3,57.6,182.7z M152.7,173.7l-7-9.8c-0.6-0.9-0.4-2.1,0.4-2.7c0,0,0,0,0,0c0.9-0.7,2.1-0.5,2.8,0.3l7.5,9.4 c0.8,1,0.6,2.5-0.4,3.3c0,0,0,0-0.1,0.1C155,175,153.5,174.7,152.7,173.7z M40.3,171.2C40.3,171.2,40.3,171.2,40.3,171.2 c-1-0.9-1.1-2.4-0.3-3.4l8-9c0.7-0.8,2-0.9,2.8-0.2c0,0,0,0,0,0c0.8,0.7,1,1.9,0.3,2.8l-7.5,9.4C42.8,171.9,41.3,172.1,40.3,171.2z M167.8,160l-9-8c-0.8-0.7-0.9-1.9-0.2-2.8c0,0,0,0,0,0c0.7-0.8,1.9-1,2.8-0.3l9.4,7.5c1,0.8,1.2,2.3,0.3,3.3c0,0,0,0-0.1,0.1 C170.3,160.8,168.8,160.9,167.8,160z M26,156.2C26,156.2,25.9,156.2,26,156.2c-0.8-1.1-0.6-2.6,0.5-3.3l9.8-7 c0.9-0.6,2.1-0.4,2.8,0.4c0,0,0,0,0,0c0.7,0.9,0.5,2.1-0.3,2.8l-9.4,7.5C28.3,157.4,26.8,157.2,26,156.2z M179.5,143.5l-10.6-5.8 c-1-0.5-1.3-1.7-0.8-2.7c0,0,0,0,0-0.1c0.5-1,1.7-1.4,2.6-0.9l10.8,5.2c1.2,0.6,1.7,2,1.1,3.1c0,0,0,0.1,0,0.1 C182.1,143.7,180.6,144.1,179.5,143.5z M15.3,138.3C15.3,138.3,15.3,138.3,15.3,138.3c-0.6-1.2,0-2.6,1.2-3.1l11.1-4.7 c1-0.4,2.1,0,2.6,1c0,0,0,0,0,0c0.4,1,0,2.2-0.9,2.6l-10.8,5.2C17.3,140,15.9,139.5,15.3,138.3z M187.2,124.7l-11.6-3.3 c-1-0.3-1.6-1.4-1.4-2.4c0,0,0,0,0-0.1c0.3-1.1,1.3-1.7,2.4-1.5l11.7,2.7c1.3,0.3,2.1,1.6,1.8,2.8c0,0,0,0,0,0 C189.7,124.3,188.4,125,187.2,124.7z M8.9,118.6c0-0.1,0-0.1,0-0.2c-0.3-1.3,0.6-2.5,1.9-2.7l12-2.1c1-0.2,2,0.5,2.2,1.5 c0,0.1,0,0.1,0,0.2c0.2,1-0.4,2-1.4,2.3l-11.8,2.7C10.4,120.6,9.2,119.8,8.9,118.6z M190.4,104.7l-11.8-0.6c-1.2-0.1-2.1-1-2.1-2.2 c0,0,0,0,0-0.1c0-1.2,1-2.1,2.2-2.1h11.8c1.3,0,2.4,1.1,2.3,2.4c0,0.1,0,0.2,0,0.4C192.9,103.7,191.7,104.7,190.4,104.7z M7.1,97.8 C7.1,97.8,7.1,97.8,7.1,97.8c0-1.4,1.1-2.4,2.4-2.3l12.1,0.6c1,0.1,1.8,0.9,1.8,2c0,0,0,0,0,0c0,1-0.9,1.9-1.9,1.9l-12.1,0.1 C8.1,100.2,7.1,99.1,7.1,97.8z M175,84.6C175,84.6,175,84.6,175,84.6c-0.2-1.1,0.4-2.2,1.5-2.4l11.7-2.7c1.3-0.3,2.6,0.5,2.8,1.8 c0,0,0,0,0,0.1c0.3,1.3-0.6,2.5-1.9,2.8l-11.8,2.1C176.3,86.4,175.2,85.7,175,84.6z M23.4,82.7L11.6,80c-1.2-0.3-2-1.5-1.7-2.8 c0-0.1,0-0.1,0-0.2c0.3-1.2,1.6-2,2.8-1.6l11.7,3.3c1,0.3,1.6,1.3,1.3,2.3c0,0.1,0,0.1,0,0.2C25.5,82.3,24.5,82.9,23.4,82.7z M169.7,68.3C169.7,68.3,169.7,68.3,169.7,68.3c-0.5-1-0.1-2.2,0.9-2.7l10.8-5.3c1.2-0.6,2.6-0.1,3.1,1.1c0,0,0,0,0,0 c0.5,1.2,0,2.6-1.2,3.1l-11.1,4.7C171.3,69.8,170.2,69.3,169.7,68.3z M29.1,66.1l-10.8-5.2c-1.2-0.6-1.7-2-1.1-3.2c0,0,0,0,0-0.1 c0.6-1.2,2.1-1.6,3.2-1L31,62.5c1,0.5,1.3,1.7,0.8,2.7c0,0,0,0,0,0C31.3,66.1,30.1,66.6,29.1,66.1z M160.9,53.6 C160.9,53.6,160.9,53.6,160.9,53.6c-0.7-0.9-0.6-2.1,0.3-2.8l9.4-7.5c1-0.8,2.5-0.7,3.3,0.4c0,0,0,0,0,0c0.8,1,0.6,2.5-0.5,3.3 l-9.7,7C162.8,54.7,161.6,54.5,160.9,53.6z M38.5,51.2l-9.4-7.5c-1-0.8-1.2-2.3-0.4-3.3c0,0,0,0,0,0c0.8-1,2.4-1.1,3.3-0.2l9,8 c0.8,0.7,0.9,2,0.2,2.8c0,0,0,0,0,0C40.5,51.8,39.3,51.9,38.5,51.2z M149.1,41.2C149.1,41.2,149.1,41.2,149.1,41.2 c-0.9-0.7-1-1.9-0.3-2.8l7.5-9.4c0.8-1,2.3-1.2,3.3-0.4c0,0,0,0,0,0c1,0.8,1.1,2.4,0.2,3.3l-7.9,9 C151.2,41.8,149.9,41.9,149.1,41.2z M50.9,38.8l-7.5-9.4c-0.8-1-0.7-2.5,0.4-3.3c0,0,0,0,0,0c1-0.8,2.5-0.5,3.3,0.5l7,9.7 c0.6,0.9,0.4,2.1-0.4,2.8c0,0,0,0,0,0C52.8,39.7,51.6,39.6,50.9,38.8z M134.8,31.8C134.8,31.8,134.8,31.7,134.8,31.8 c-1-0.5-1.4-1.7-0.9-2.7l5.2-10.8c0.6-1.2,2-1.7,3.2-1.1c0,0,0,0,0,0c1.2,0.6,1.6,2.1,1,3.2l-5.7,10.5 C136.9,31.9,135.8,32.3,134.8,31.8z M65.7,29.3l-5.3-10.8c-0.6-1.2-0.1-2.6,1.1-3.2c0,0,0,0,0,0c1.2-0.5,2.6,0,3.1,1.2l4.7,11.1 c0.4,1,0,2.1-1,2.6c0,0,0,0,0,0C67.4,30.7,66.2,30.3,65.7,29.3z M118.7,25.7C118.7,25.7,118.7,25.7,118.7,25.7 c-1.1-0.3-1.8-1.3-1.5-2.4l2.6-11.7c0.3-1.3,1.6-2.1,2.8-1.8c0,0,0,0,0,0c1.3,0.3,2,1.6,1.7,2.9l-3.2,11.6 C120.9,25.4,119.8,26,118.7,25.7z M82.3,23.5l-2.7-11.7c-0.3-1.3,0.5-2.6,1.8-2.8c0,0,0,0,0,0c1.3-0.3,2.5,0.6,2.8,1.9l2.1,11.8 c0.2,1.1-0.5,2.1-1.6,2.3c0,0,0,0,0,0C83.6,25.2,82.5,24.5,82.3,23.5z M101.8,23.5C101.7,23.5,101.7,23.5,101.8,23.5 c-1.2,0-2-0.9-2-2v-12c0-1.3,1.1-2.3,2.3-2.3c0,0,0,0,0.1,0c1.3,0,2.3,1.1,2.3,2.4l-0.6,12C103.8,22.6,102.9,23.5,101.8,23.5z" fill="inherit"/></g><g><g id="change4_1"><path d="M120.1,135.7c-17.4,9.7-42.4,0.7-44.8-21.2h-6.3v-9.9h5c-0.2-2.7-0.1-3.6,0.1-7.3h-5.1v-9.7h6.6 c3.4-20.8,26.8-31,44.6-22.4v13.5c-10.1-8.6-26.3-4.6-29.4,8.9h22.1v9.7H89.1c-0.2,3.6-0.3,4.3-0.1,7.3h23.8v9.9H90.6 c3.7,15,18.8,16.1,29.5,8.4L120.1,135.7L120.1,135.7z" fill="#fff8a0"/></g></g></svg>