<?xml version="1.0" encoding="UTF-8"?><svg xmlns="http://www.w3.org/2000/svg" xmlns:xlink="http://www.w3.org/1999/xlink" height="206.1" preserveAspectRatio="xMidYMid meet" version="1.0" viewBox="0.0 0.0 431.1 206.1" width="431.1" zoomAndPan="magnify"><g id="change1_1"><path d="M391.2,206.1H51.1c-22,0-39.9-18-39.9-39.9V46.4c0-22,18-39.9,39.9-39.9h340.1c22,0,39.9,18,39.9,39.9v119.8 C431.1,188.1,413.2,206.1,391.2,206.1z" fill="#F09A53"/></g><g id="change2_1"><path d="M379.3,0H39C17.5,0,0,17.5,0,39v113.2c0,21.4,17.5,39,39,39h340.3c21.4,0,39-17.5,39-39V39 C418.3,17.5,400.8,0,379.3,0z M79.1,25.8c30.5,0,55.2,24.7,55.2,55.2s-24.7,55.2-55.2,55.2s-55.2-24.7-55.2-55.2 S48.6,25.8,79.1,25.8z M42.9,154.1l-4.7,4.1l1.6,6.3c0.1,0.6-0.5,1-1,0.7l-5.3-3.4l-5.3,3.4c-0.5,0.3-1.1-0.1-1-0.7l1.6-6.3 l-4.7-4.1c-0.5-0.4-0.2-1.1,0.4-1.2l6.3-0.3l2.2-6c0.2-0.6,1-0.6,1.2,0l2.5,6l5.9,0.3C43.1,153,43.3,153.7,42.9,154.1z M65.7,154.1 l-4.7,4.1l1.6,6.3c0.1,0.6-0.5,1-1,0.7l-5.3-3.4l-5.3,3.4c-0.5,0.3-1.1-0.1-1-0.7l1.6-6.3l-4.7-4.1c-0.5-0.4-0.2-1.1,0.4-1.2 l6.3-0.3l2.2-6c0.2-0.6,1-0.6,1.2,0l2.5,6l5.9,0.3C65.9,153,66.2,153.7,65.7,154.1z M88.6,154.1l-4.7,4.1l1.6,6.3 c0.1,0.6-0.5,1-1,0.7l-5.3-3.4l-5.3,3.4c-0.5,0.3-1.1-0.1-1-0.7l1.6-6.3l-4.7-4.1c-0.5-0.4-0.2-1.1,0.4-1.2l6.3-0.3l2.2-6 c0.2-0.6,1-0.6,1.2,0l2.5,6l5.9,0.3C88.8,153,89,153.7,88.6,154.1z M111.4,154.1l-4.7,4.1l1.6,6.3c0.1,0.6-0.5,1-1,0.7l-5.3-3.4 l-5.3,3.4c-0.5,0.3-1.1-0.1-1-0.7l1.6-6.3l-4.7-4.1c-0.5-0.4-0.2-1.1,0.4-1.2l6.3-0.3l2.2-6c0.2-0.6,1-0.6,1.2,0l2.5,6l5.9,0.3 C111.6,153,111.8,153.7,111.4,154.1z M134.2,154.1l-4.7,4.1l1.6,6.3c0.1,0.6-0.5,1-1,0.7l-5.3-3.4l-5.3,3.4c-0.5,0.3-1.1-0.1-1-0.7 l1.6-6.3l-4.7-4.1c-0.5-0.4-0.2-1.1,0.4-1.2l6.3-0.3l2.2-6c0.2-0.6,1-0.6,1.2,0l2.5,6l5.9,0.3C134.4,153,134.7,153.7,134.2,154.1z M165.7,174.9h-2V20h2V174.9z" fill="#F4D4AE"/></g></svg>