<?xml version="1.0" encoding="UTF-8"?><svg xmlns="http://www.w3.org/2000/svg" xmlns:xlink="http://www.w3.org/1999/xlink" height="94.5" preserveAspectRatio="xMidYMid meet" version="1.0" viewBox="-0.1 -0.7 69.9 94.5" width="69.9" zoomAndPan="magnify"><defs><clipPath id="a"><path d="M 2 83 L 28 83 L 28 93.871094 L 2 93.871094 Z M 2 83"/></clipPath><clipPath id="b"><path d="M 2 43 L 27 43 L 27 93.871094 L 2 93.871094 Z M 2 43"/></clipPath><clipPath id="c"><path d="M 29 39 L 69.839844 39 L 69.839844 91 L 29 91 Z M 29 39"/></clipPath><clipPath id="d"><path d="M 30 39 L 69.839844 39 L 69.839844 91 L 30 91 Z M 30 39"/></clipPath></defs><g><g id="change1_1"><path d="M 9.742188 4.925781 C 9.804688 4.570312 9.765625 3.671875 9.84375 3.601562 C 10.050781 3.425781 11.839844 3.949219 12.246094 3.886719 C 15.335938 3.398438 16.984375 5.183594 16.984375 5.183594 C 16.984375 5.183594 16.78125 6.367188 16.570312 7.570312 C 16.316406 9.011719 14.84375 11.089844 14.660156 11.179688 L 14.667969 13.359375 L 15.140625 13.777344 C 15.140625 13.777344 13.972656 14.871094 12.683594 14.617188 C 11.570312 14.398438 9.882812 13.113281 9.882812 13.113281 C 9.882812 13.113281 9.839844 13.144531 10.414062 12.730469 C 10.828125 12.433594 10.679688 10.300781 10.566406 9.140625 C 10.242188 8.53125 10.125 8.03125 10.125 8.03125 C 9.238281 7.578125 8.980469 6.554688 9.128906 5.605469 C 9.214844 5.078125 9.464844 4.878906 9.742188 4.925781" fill="#bd651d" fill-rule="evenodd"/></g><g clip-path="url(#a)" id="change2_2"><path d="M 26.859375 88.863281 C 26.191406 88.289062 25.324219 87.75 24.542969 87.339844 C 23.898438 87.003906 23.222656 86.753906 22.6875 86.242188 C 22.292969 85.867188 21.933594 85.457031 21.789062 84.921875 C 21.757812 84.808594 21.710938 83.960938 21.613281 83.929688 C 21.289062 83.832031 20.65625 84.152344 20.355469 84.238281 C 19.398438 84.515625 18.394531 84.90625 17.390625 84.972656 L 16.957031 84.929688 C 17.09375 84.886719 17.03125 86 17.015625 86.140625 C 16.925781 87.03125 16.625 87.882812 16.503906 88.769531 C 16.484375 88.90625 16.433594 89.554688 16.585938 89.679688 C 16.734375 89.800781 17.023438 89.84375 17.203125 89.890625 C 17.609375 90.003906 18.152344 90.257812 18.582031 90.210938 C 18.972656 90.171875 19.347656 89.597656 19.765625 89.765625 C 20.320312 89.984375 20.5625 90.875 21.0625 91.1875 C 21.480469 91.449219 21.957031 91.621094 22.417969 91.78125 C 23.839844 92.277344 26.121094 93.042969 27.214844 91.480469 C 27.769531 90.691406 27.570312 89.472656 26.859375 88.863281 Z M 13.066406 92.96875 C 13.136719 93.320312 12.765625 93.828125 12.46875 93.855469 C 11.097656 93.980469 8.570312 93.226562 7.941406 92.703125 C 7.480469 92.316406 7.367188 91.875 6.765625 91.71875 C 6.332031 91.605469 5.855469 91.921875 5.464844 92.007812 C 4.886719 92.132812 4.113281 91.660156 3.59375 91.453125 C 3.402344 91.378906 3.117188 91.292969 2.992188 91.117188 C 2.882812 90.957031 3.207031 90.421875 3.25 90.257812 C 3.472656 89.421875 3.53125 88.542969 3.714844 87.695312 C 3.789062 87.335938 4.269531 85.296875 4.351562 85.234375 C 4.394531 85.207031 4.621094 85.285156 4.664062 85.292969 C 4.984375 85.355469 5.3125 85.410156 5.636719 85.4375 C 5.925781 85.460938 6.214844 85.488281 6.507812 85.507812 C 6.878906 85.535156 7.25 85.535156 7.621094 85.535156 C 7.695312 85.535156 7.941406 85.503906 8.007812 85.5625 C 8.070312 85.621094 8.070312 85.941406 8.089844 86.019531 C 8.191406 86.398438 8.332031 86.796875 8.574219 87.109375 C 8.914062 87.542969 10.9375 89.675781 11.71875 90.164062 C 13.253906 91.121094 12.941406 92.355469 13.066406 92.96875" fill="#d13123" fill-rule="evenodd"/></g><g clip-path="url(#b)" id="change3_3"><path d="M 22.210938 85.820312 C 22.117188 85.992188 22.035156 86.167969 21.921875 86.320312 C 21.980469 86.265625 22.046875 86.21875 22.117188 86.179688 C 22.253906 86.105469 22.40625 86.050781 22.554688 85.988281 C 22.695312 85.929688 22.828125 85.863281 22.925781 85.765625 C 23 85.695312 23.0625 85.601562 23.089844 85.5 C 23.113281 85.410156 23.109375 85.316406 23.046875 85.234375 C 22.996094 85.164062 22.929688 85.144531 22.863281 85.15625 C 22.738281 85.175781 22.609375 85.28125 22.523438 85.367188 C 22.382812 85.507812 22.289062 85.664062 22.210938 85.820312 Z M 21.761719 86.226562 C 21.753906 86.214844 21.738281 86.203125 21.726562 86.195312 C 21.65625 86.144531 21.550781 86.121094 21.492188 86.105469 C 21.359375 86.070312 21 86.058594 20.75 86.144531 C 20.605469 86.195312 20.496094 86.28125 20.550781 86.4375 C 20.589844 86.550781 20.703125 86.59375 20.832031 86.609375 C 21.039062 86.632812 21.292969 86.574219 21.417969 86.507812 C 21.570312 86.433594 21.675781 86.335938 21.761719 86.226562 Z M 22.042969 85.730469 C 22.132812 85.558594 22.230469 85.386719 22.386719 85.230469 C 22.5 85.117188 22.671875 84.988281 22.835938 84.964844 C 22.96875 84.945312 23.097656 84.980469 23.203125 85.121094 C 23.28125 85.226562 23.304688 85.347656 23.289062 85.464844 C 23.269531 85.625 23.171875 85.789062 23.054688 85.898438 C 22.960938 85.992188 22.84375 86.058594 22.714844 86.117188 C 22.546875 86.191406 22.359375 86.25 22.203125 86.335938 C 22.175781 86.347656 22.164062 86.371094 22.140625 86.386719 C 22.152344 86.402344 22.160156 86.417969 22.175781 86.425781 C 22.316406 86.5 22.457031 86.574219 22.597656 86.648438 C 22.65625 86.675781 22.71875 86.707031 22.777344 86.734375 C 22.957031 86.820312 23.132812 86.875 23.300781 86.90625 C 23.488281 86.9375 23.664062 86.933594 23.828125 86.886719 C 24.140625 86.800781 24.402344 86.558594 24.574219 86.148438 C 24.585938 86.117188 24.617188 86.101562 24.648438 86.117188 C 24.679688 86.128906 24.695312 86.160156 24.683594 86.191406 C 24.515625 86.664062 24.230469 86.945312 23.882812 87.058594 C 23.695312 87.121094 23.484375 87.132812 23.265625 87.09375 C 23.082031 87.0625 22.890625 86.992188 22.699219 86.890625 C 22.617188 86.847656 22.539062 86.800781 22.460938 86.753906 C 22.34375 86.683594 22.230469 86.605469 22.113281 86.535156 C 22.089844 86.519531 22.070312 86.496094 22.054688 86.46875 C 22.050781 86.464844 22.050781 86.464844 22.050781 86.464844 C 22.011719 86.496094 21.960938 86.519531 21.933594 86.5625 C 21.550781 87.179688 21.53125 87.910156 21.292969 88.574219 C 21.195312 88.863281 21.054688 89.136719 20.835938 89.390625 C 20.8125 89.414062 20.777344 89.417969 20.75 89.394531 C 20.726562 89.375 20.722656 89.335938 20.742188 89.3125 C 20.949219 89.070312 21.074219 88.804688 21.164062 88.53125 C 21.394531 87.851562 21.40625 87.109375 21.789062 86.476562 C 21.796875 86.464844 21.800781 86.457031 21.808594 86.449219 C 21.722656 86.53125 21.621094 86.605469 21.496094 86.667969 C 21.347656 86.738281 21.054688 86.804688 20.808594 86.769531 C 20.617188 86.746094 20.460938 86.65625 20.40625 86.484375 C 20.34375 86.285156 20.421875 86.152344 20.574219 86.066406 C 20.839844 85.917969 21.355469 85.941406 21.523438 85.988281 C 21.605469 86.011719 21.753906 86.058594 21.828125 86.132812 C 21.90625 86.007812 21.972656 85.867188 22.042969 85.730469 Z M 6.589844 88.207031 C 6.644531 88.265625 6.726562 88.3125 6.792969 88.335938 C 6.929688 88.386719 7.089844 88.394531 7.238281 88.371094 C 7.390625 88.34375 7.539062 88.285156 7.65625 88.199219 C 7.789062 88.097656 7.886719 87.976562 7.96875 87.847656 L 7.980469 87.832031 C 7.929688 87.816406 7.882812 87.804688 7.832031 87.792969 C 7.773438 87.78125 7.714844 87.769531 7.65625 87.761719 C 7.472656 87.738281 7.164062 87.722656 6.910156 87.789062 C 6.75 87.832031 6.609375 87.902344 6.546875 88.035156 C 6.519531 88.101562 6.546875 88.160156 6.589844 88.207031 Z M 8.089844 88 C 8.109375 87.984375 8.132812 87.972656 8.160156 87.960938 C 8.15625 87.960938 8.148438 87.960938 8.144531 87.957031 C 8.140625 87.957031 8.132812 87.953125 8.125 87.945312 L 8.125 87.949219 C 8.113281 87.964844 8.101562 87.980469 8.089844 88 Z M 8.179688 87.859375 C 8.183594 87.863281 8.1875 87.863281 8.1875 87.859375 C 8.191406 87.859375 8.1875 87.859375 8.1875 87.859375 C 8.183594 87.859375 8.183594 87.855469 8.179688 87.855469 Z M 8.1875 87.84375 C 8.207031 87.847656 8.222656 87.867188 8.226562 87.886719 C 8.230469 87.921875 8.214844 87.941406 8.207031 87.949219 C 8.316406 87.925781 8.484375 87.921875 8.535156 87.90625 C 8.75 87.828125 9.164062 87.609375 9.378906 87.34375 C 9.457031 87.242188 9.507812 87.132812 9.492188 87.019531 C 9.480469 86.953125 9.449219 86.886719 9.386719 86.820312 C 9.296875 86.726562 9.179688 86.71875 9.0625 86.75 C 8.933594 86.785156 8.808594 86.871094 8.726562 86.957031 C 8.476562 87.214844 8.363281 87.546875 8.1875 87.84375 Z M 6.734375 88.488281 C 6.628906 88.445312 6.5 88.363281 6.433594 88.257812 C 6.378906 88.175781 6.359375 88.078125 6.410156 87.972656 C 6.492188 87.800781 6.667969 87.703125 6.878906 87.65625 C 7.152344 87.589844 7.480469 87.613281 7.675781 87.644531 C 7.734375 87.652344 7.796875 87.664062 7.859375 87.679688 C 7.917969 87.695312 7.980469 87.710938 8.039062 87.734375 C 8.210938 87.425781 8.332031 87.089844 8.585938 86.824219 C 8.714844 86.691406 8.917969 86.566406 9.117188 86.542969 C 9.265625 86.527344 9.410156 86.566406 9.527344 86.691406 C 9.644531 86.820312 9.6875 86.953125 9.683594 87.082031 C 9.675781 87.210938 9.617188 87.339844 9.523438 87.457031 C 9.285156 87.75 8.828125 87.984375 8.59375 88.066406 C 8.5625 88.078125 8.488281 88.085938 8.410156 88.09375 C 8.332031 88.101562 8.246094 88.105469 8.199219 88.128906 L 8.195312 88.128906 C 8.191406 88.136719 8.191406 88.144531 8.1875 88.152344 C 8.386719 88.226562 8.585938 88.300781 8.777344 88.367188 C 8.914062 88.417969 9.050781 88.460938 9.183594 88.496094 C 9.277344 88.523438 9.367188 88.542969 9.457031 88.5625 C 9.597656 88.585938 9.734375 88.605469 9.871094 88.601562 C 10.21875 88.601562 10.570312 88.5 10.9375 88.214844 C 10.964844 88.195312 11 88.199219 11.023438 88.222656 C 11.042969 88.25 11.039062 88.289062 11.011719 88.308594 C 10.628906 88.636719 10.253906 88.773438 9.875 88.789062 C 9.722656 88.792969 9.574219 88.78125 9.421875 88.75 C 9.324219 88.730469 9.226562 88.707031 9.132812 88.675781 C 8.992188 88.632812 8.855469 88.578125 8.71875 88.519531 C 8.53125 88.4375 8.34375 88.347656 8.152344 88.253906 C 8.132812 88.308594 8.105469 88.355469 8.09375 88.410156 C 8.058594 88.578125 8.046875 88.757812 8.015625 88.910156 C 7.9375 89.296875 7.855469 89.828125 7.699219 90.304688 C 7.589844 90.636719 7.441406 90.941406 7.230469 91.148438 C 7.207031 91.171875 7.171875 91.171875 7.148438 91.148438 C 7.125 91.125 7.125 91.089844 7.148438 91.066406 C 7.339844 90.867188 7.472656 90.578125 7.574219 90.261719 C 7.71875 89.792969 7.792969 89.261719 7.863281 88.878906 C 7.894531 88.703125 7.90625 88.484375 7.957031 88.292969 C 7.972656 88.214844 8 88.144531 8.035156 88.078125 C 7.957031 88.175781 7.867188 88.265625 7.761719 88.339844 C 7.621094 88.441406 7.449219 88.511719 7.265625 88.539062 C 7.085938 88.566406 6.898438 88.554688 6.734375 88.488281 Z M 26.773438 91.945312 C 26.554688 91.992188 26.320312 91.996094 26.082031 91.980469 C 25.726562 91.953125 25.363281 91.875 25.039062 91.808594 C 24.554688 91.707031 24.066406 91.601562 23.585938 91.476562 C 23.382812 91.421875 23.175781 91.363281 22.972656 91.300781 C 22.523438 91.164062 22.082031 91.007812 21.65625 90.804688 C 21.53125 90.746094 21.40625 90.683594 21.285156 90.625 C 21.101562 90.53125 20.921875 90.433594 20.738281 90.335938 C 20.644531 90.289062 20.515625 90.242188 20.410156 90.179688 C 20.363281 90.15625 20.324219 90.128906 20.292969 90.097656 C 20.273438 90.078125 20.238281 90.078125 20.21875 90.097656 C 20.195312 90.121094 20.195312 90.152344 20.214844 90.175781 C 20.253906 90.210938 20.300781 90.246094 20.351562 90.277344 C 20.457031 90.34375 20.585938 90.394531 20.675781 90.449219 C 20.855469 90.554688 21.035156 90.65625 21.214844 90.757812 C 21.335938 90.824219 21.457031 90.890625 21.582031 90.953125 C 22.011719 91.167969 22.460938 91.34375 22.917969 91.488281 C 23.121094 91.550781 23.332031 91.605469 23.539062 91.660156 C 24.023438 91.78125 24.519531 91.878906 25.007812 91.96875 C 25.339844 92.027344 25.710938 92.097656 26.074219 92.117188 C 26.324219 92.128906 26.570312 92.117188 26.800781 92.058594 C 26.832031 92.054688 26.851562 92.019531 26.84375 91.988281 C 26.835938 91.957031 26.804688 91.9375 26.773438 91.945312 Z M 18.746094 89.59375 C 18.496094 89.492188 18.253906 89.378906 18.003906 89.273438 C 17.839844 89.203125 17.671875 89.140625 17.496094 89.074219 C 17.371094 89.03125 17.246094 88.988281 17.121094 88.953125 C 17.035156 88.925781 16.953125 88.902344 16.863281 88.882812 C 16.839844 88.875 16.640625 88.839844 16.570312 88.84375 C 16.542969 88.84375 16.527344 88.851562 16.515625 88.859375 C 16.5 88.871094 16.492188 88.886719 16.492188 88.90625 C 16.492188 88.914062 16.496094 88.925781 16.503906 88.9375 C 16.519531 88.964844 16.550781 88.96875 16.578125 88.957031 L 16.582031 88.953125 C 16.648438 88.960938 16.808594 89.007812 16.828125 89.015625 C 16.910156 89.042969 16.988281 89.070312 17.070312 89.101562 C 17.191406 89.148438 17.3125 89.199219 17.433594 89.246094 C 17.578125 89.304688 17.71875 89.367188 17.859375 89.421875 C 18.078125 89.511719 18.292969 89.59375 18.511719 89.671875 C 18.75 89.761719 18.996094 89.839844 19.253906 89.90625 C 19.285156 89.914062 19.320312 89.898438 19.328125 89.867188 C 19.335938 89.835938 19.320312 89.800781 19.285156 89.792969 C 19.101562 89.730469 18.921875 89.664062 18.746094 89.59375 Z M 12.542969 93.210938 C 12.300781 93.285156 12.03125 93.300781 11.789062 93.304688 C 11.253906 93.316406 10.777344 93.199219 10.320312 93.023438 C 9.96875 92.886719 9.628906 92.714844 9.289062 92.535156 C 8.949219 92.359375 8.613281 92.175781 8.253906 92.007812 C 8.074219 91.925781 7.890625 91.847656 7.699219 91.785156 C 7.511719 91.722656 7.320312 91.671875 7.121094 91.636719 C 7.085938 91.632812 6.832031 91.628906 6.730469 91.609375 C 6.726562 91.605469 6.722656 91.605469 6.71875 91.605469 C 6.722656 91.609375 6.722656 91.617188 6.726562 91.617188 C 6.722656 91.613281 6.722656 91.609375 6.71875 91.605469 C 6.714844 91.605469 6.710938 91.605469 6.714844 91.601562 C 6.699219 91.589844 6.671875 91.585938 6.652344 91.597656 C 6.628906 91.609375 6.617188 91.644531 6.632812 91.667969 C 6.636719 91.679688 6.648438 91.691406 6.671875 91.703125 C 6.6875 91.710938 6.714844 91.71875 6.753906 91.722656 C 6.867188 91.746094 7.066406 91.753906 7.097656 91.761719 C 7.285156 91.800781 7.472656 91.859375 7.652344 91.925781 C 7.832031 91.992188 8.007812 92.074219 8.183594 92.160156 C 8.53125 92.335938 8.863281 92.527344 9.199219 92.703125 C 9.546875 92.890625 9.894531 93.0625 10.253906 93.195312 C 10.730469 93.375 11.234375 93.480469 11.796875 93.460938 C 12.046875 93.449219 12.332031 93.421875 12.585938 93.335938 C 12.757812 93.277344 12.921875 93.1875 13.050781 93.058594 C 13.074219 93.035156 13.078125 92.996094 13.054688 92.972656 C 13.03125 92.949219 12.992188 92.949219 12.96875 92.972656 C 12.847656 93.085938 12.703125 93.160156 12.542969 93.210938 Z M 6.71875 91.605469 C 6.71875 91.601562 6.714844 91.597656 6.714844 91.601562 Z M 3.460938 89.96875 C 3.464844 89.964844 3.464844 89.960938 3.460938 89.960938 Z M 5.265625 91.105469 C 5.0625 90.992188 4.867188 90.863281 4.675781 90.738281 C 4.59375 90.6875 4.515625 90.636719 4.4375 90.585938 C 4.316406 90.507812 4.195312 90.429688 4.078125 90.359375 C 4.046875 90.34375 3.886719 90.253906 3.734375 90.164062 C 3.632812 90.101562 3.535156 90.039062 3.484375 89.988281 C 3.476562 89.980469 3.46875 89.972656 3.460938 89.96875 C 3.460938 89.972656 3.457031 89.976562 3.457031 89.980469 C 3.457031 89.976562 3.460938 89.972656 3.460938 89.96875 C 3.457031 89.964844 3.457031 89.964844 3.460938 89.960938 C 3.460938 89.9375 3.449219 89.917969 3.429688 89.910156 C 3.398438 89.898438 3.367188 89.914062 3.359375 89.9375 C 3.347656 89.960938 3.351562 89.984375 3.363281 90.015625 C 3.378906 90.046875 3.414062 90.085938 3.460938 90.128906 C 3.625 90.273438 3.941406 90.472656 3.984375 90.503906 C 4.097656 90.582031 4.214844 90.664062 4.332031 90.746094 C 4.410156 90.796875 4.488281 90.847656 4.570312 90.902344 C 4.769531 91.027344 4.976562 91.152344 5.1875 91.257812 C 5.480469 91.40625 5.785156 91.523438 6.089844 91.578125 C 6.121094 91.585938 6.152344 91.566406 6.160156 91.535156 C 6.167969 91.5 6.144531 91.46875 6.113281 91.464844 C 5.824219 91.394531 5.542969 91.261719 5.265625 91.105469 Z M 18.832031 85.570312 C 17.753906 85.652344 15.679688 84.792969 15.679688 84.792969 L 13.078125 53.648438 L 8.757812 85.628906 C 8.757812 85.628906 6.464844 86.644531 5.503906 86.597656 C 4.566406 86.554688 2.980469 85.359375 2.980469 85.359375 L 4.050781 44.003906 L 20.464844 43.355469 C 20.464844 43.355469 22.46875 58.824219 22.039062 63.832031 C 21.359375 71.738281 22.363281 84.28125 22.363281 84.28125 C 22.363281 84.28125 19.945312 85.484375 18.832031 85.570312" fill="#3b435f" fill-rule="evenodd"/></g><g id="change4_1"><path d="M 3.738281 42.621094 C 3.738281 42.621094 5.144531 28.648438 5.320312 26.210938 C 5.175781 26.207031 4.582031 26.230469 4.371094 26.199219 C 3.386719 26.0625 0.371094 28.453125 0.164062 27.269531 C -0.113281 25.714844 -0.0976562 22.898438 0.671875 20.011719 C 1.167969 18.136719 2.734375 17.058594 4.152344 15.996094 C 5.695312 14.839844 9.925781 13.082031 9.925781 13.082031 C 9.925781 13.082031 12.230469 14.457031 13.296875 14.53125 C 14.363281 14.605469 15.140625 13.703125 15.140625 13.703125 C 15.140625 13.703125 20.476562 14.671875 22.300781 16.464844 C 24.28125 18.414062 27.125 23.671875 27.03125 25.394531 C 26.941406 27.046875 22.132812 26.808594 22.132812 26.808594 L 20.003906 36.230469 L 20.507812 42.632812 C 20.507812 42.632812 12.179688 48.957031 3.738281 42.621094" fill="#fce8bc" fill-rule="evenodd"/></g><g id="change2_1"><path d="M 15.09375 13.808594 C 14.972656 13.082031 20.3125 14.660156 20.390625 15.144531 C 21.207031 20.070312 21.324219 34.402344 20.734375 43.230469 L 15.800781 45.417969 C 15.800781 45.417969 15.617188 16.976562 15.09375 13.808594 Z M 3.789062 16.351562 C 4.003906 15.710938 9.351562 12.375 9.898438 13.0625 C 10.683594 14.042969 12.199219 22.097656 12.039062 27.820312 C 11.90625 32.539062 11.210938 41.96875 10.90625 46.082031 L 2.503906 43.796875 C 4.65625 38.261719 5.640625 31.847656 5.339844 26.582031 C 5.042969 21.386719 3.472656 17.304688 3.789062 16.351562" fill="#d13123" fill-rule="evenodd"/></g><g id="change1_2"><path d="M 0.804688 27.15625 C 1.113281 25.671875 4.5 25.277344 5.316406 26.117188 L 5.714844 32.191406 C 6.683594 30.597656 11.285156 28.71875 11.285156 28.71875 C 11.285156 28.71875 12.117188 27.292969 12.492188 26.773438 C 13.429688 25.464844 14.945312 25.222656 14.945312 25.222656 C 14.945312 25.222656 14.976562 28.984375 13.730469 30.550781 C 12.480469 32.117188 6.761719 38.3125 4.609375 37.746094 C 2.457031 37.179688 0.804688 27.15625 0.804688 27.15625" fill="#bd651d" fill-rule="evenodd"/></g><g id="change1_3"><path d="M 19.882812 21.320312 C 19.984375 21.320312 20.066406 21.410156 20.066406 21.515625 C 20.066406 21.621094 19.984375 21.707031 19.882812 21.707031 C 19.78125 21.707031 19.703125 21.621094 19.703125 21.515625 C 19.703125 21.410156 19.78125 21.320312 19.882812 21.320312 Z M 21.488281 22.507812 C 21.488281 22.507812 17.804688 22.660156 17.816406 22.613281 C 17.867188 22.417969 17.886719 21.976562 18.023438 21.8125 C 18.21875 21.582031 18.675781 21.863281 18.917969 21.769531 C 19.394531 21.589844 19.246094 20.75 20.078125 20.894531 C 20.277344 20.925781 20.457031 21.574219 20.589844 21.648438 C 20.765625 21.75 21.304688 21.613281 21.488281 21.675781 C 21.820312 21.789062 21.488281 22.234375 21.488281 22.507812" fill="#bd651d" fill-rule="evenodd"/></g><g id="change3_1"><path d="M 12.808594 34.933594 L 15.023438 22.578125 L 24.507812 22.011719 L 21.59375 34.148438 L 12.808594 34.933594" fill="#3b435f" fill-rule="evenodd"/></g><g id="change1_4"><path d="M 26.820312 30.640625 C 26.710938 32.277344 26.078125 35.273438 25.90625 35.667969 C 25.730469 36.0625 24.628906 36.773438 23.15625 33.707031 C 22.824219 33.019531 22.519531 31.457031 22.519531 31.457031 C 22.519531 31.457031 20.878906 31.960938 20.433594 31.316406 C 20.335938 31.175781 20.550781 31.207031 20.523438 30.796875 C 20.507812 30.597656 20.296875 30.328125 20.320312 30.09375 C 20.335938 29.925781 20.554688 29.628906 20.566406 29.46875 C 20.59375 29.136719 20.433594 28.847656 20.496094 28.671875 C 20.691406 28.128906 21.859375 27.925781 21.859375 27.925781 C 21.859375 27.925781 19.191406 27.214844 19.308594 26.625 C 19.382812 26.261719 23.214844 27.351562 23.257812 27.101562 C 23.289062 26.921875 23.472656 26.304688 23.699219 26.046875 C 24.25 25.421875 26.148438 25.230469 26.570312 25.839844 C 27.109375 26.625 26.929688 29.042969 26.820312 30.640625" fill="#bd651d" fill-rule="evenodd"/></g><g clip-path="url(#c)" id="change5_1"><path d="M 37.335938 42.996094 L 51.242188 39.089844 L 62.757812 42.570312 L 61.71875 52.125 L 66.007812 53.734375 L 65.699219 56.519531 L 69.835938 57.65625 L 66.25 81.253906 L 52.429688 90.976562 L 31.085938 85.632812 L 32.070312 64.847656 L 29.136719 64.195312 L 30.035156 55.417969 L 37.140625 52.863281 L 37.335938 42.996094" fill="#f5ba53" fill-rule="evenodd"/></g><g id="change3_2"><path d="M 22.984375 30.949219 C 22.925781 30.988281 22.867188 31.03125 22.8125 31.074219 C 22.757812 31.117188 22.707031 31.160156 22.648438 31.203125 C 22.628906 31.222656 22.5 31.316406 22.460938 31.367188 C 22.4375 31.402344 22.433594 31.433594 22.441406 31.449219 C 22.453125 31.476562 22.480469 31.492188 22.511719 31.480469 C 22.527344 31.472656 22.535156 31.460938 22.542969 31.449219 C 22.542969 31.449219 22.542969 31.449219 22.542969 31.445312 C 22.558594 31.433594 22.585938 31.421875 22.617188 31.40625 C 22.671875 31.378906 22.726562 31.351562 22.742188 31.34375 C 22.789062 31.316406 22.832031 31.289062 22.878906 31.261719 C 22.90625 31.242188 22.933594 31.222656 22.960938 31.203125 C 23.027344 31.152344 23.085938 31.101562 23.144531 31.046875 C 23.234375 30.96875 23.324219 30.890625 23.414062 30.816406 C 23.445312 30.800781 23.453125 30.761719 23.433594 30.734375 C 23.414062 30.707031 23.378906 30.703125 23.351562 30.71875 C 23.222656 30.789062 23.101562 30.867188 22.984375 30.949219 Z M 21.550781 30.894531 C 21.4375 30.90625 21.320312 30.902344 21.207031 30.902344 C 21.167969 30.90625 21.128906 30.90625 21.09375 30.90625 C 21.050781 30.910156 21.011719 30.914062 20.972656 30.914062 C 20.910156 30.921875 20.804688 30.914062 20.71875 30.921875 C 20.671875 30.929688 20.625 30.9375 20.59375 30.957031 C 20.566406 30.964844 20.550781 30.996094 20.5625 31.023438 C 20.574219 31.050781 20.601562 31.066406 20.632812 31.054688 C 20.65625 31.050781 20.6875 31.054688 20.71875 31.054688 C 20.757812 31.0625 20.800781 31.070312 20.839844 31.078125 C 20.890625 31.085938 20.941406 31.089844 20.976562 31.09375 C 21.042969 31.09375 21.113281 31.097656 21.1875 31.097656 C 21.257812 31.09375 21.332031 31.089844 21.402344 31.078125 C 21.554688 31.058594 21.703125 31.027344 21.828125 30.972656 C 21.855469 30.960938 21.871094 30.929688 21.863281 30.898438 C 21.851562 30.867188 21.820312 30.851562 21.785156 30.859375 C 21.714844 30.878906 21.632812 30.890625 21.550781 30.894531 Z M 21.527344 30.046875 C 21.410156 30.066406 21.292969 30.082031 21.175781 30.097656 C 21.105469 30.109375 21.035156 30.121094 20.964844 30.132812 C 20.917969 30.136719 20.871094 30.144531 20.824219 30.152344 L 20.546875 30.1875 C 20.542969 30.1875 20.515625 30.199219 20.5 30.203125 L 20.496094 30.199219 C 20.496094 30.199219 20.496094 30.199219 20.5 30.203125 C 20.492188 30.203125 20.488281 30.199219 20.488281 30.195312 C 20.476562 30.1875 20.464844 30.1875 20.453125 30.191406 C 20.425781 30.199219 20.40625 30.226562 20.414062 30.253906 C 20.414062 30.269531 20.429688 30.289062 20.457031 30.300781 C 20.476562 30.308594 20.539062 30.308594 20.546875 30.308594 C 20.59375 30.3125 20.644531 30.316406 20.691406 30.316406 C 20.738281 30.316406 20.785156 30.316406 20.835938 30.316406 C 20.917969 30.316406 21 30.3125 21.082031 30.304688 C 21.160156 30.296875 21.242188 30.285156 21.324219 30.269531 C 21.421875 30.25 21.515625 30.226562 21.609375 30.203125 C 21.75 30.164062 21.890625 30.117188 22.027344 30.0625 C 22.058594 30.054688 22.078125 30.019531 22.066406 29.988281 C 22.058594 29.957031 22.023438 29.941406 21.992188 29.949219 C 21.839844 29.988281 21.683594 30.019531 21.527344 30.046875 Z M 20.742188 29.183594 C 20.742188 29.195312 20.753906 29.1875 20.761719 29.179688 L 20.757812 29.179688 C 20.753906 29.183594 20.75 29.183594 20.742188 29.183594 Z M 21.742188 28.921875 C 21.640625 28.933594 21.539062 28.949219 21.4375 28.960938 C 21.371094 28.972656 21.304688 28.984375 21.238281 28.996094 L 20.910156 29.054688 L 20.792969 29.070312 C 20.78125 29.074219 20.746094 29.074219 20.738281 29.074219 C 20.710938 29.078125 20.699219 29.089844 20.695312 29.09375 C 20.683594 29.117188 20.675781 29.136719 20.691406 29.15625 C 20.695312 29.160156 20.699219 29.175781 20.726562 29.183594 C 20.730469 29.183594 20.738281 29.183594 20.742188 29.183594 C 20.742188 29.179688 20.75 29.179688 20.757812 29.179688 L 20.765625 29.179688 L 20.761719 29.179688 C 20.777344 29.183594 20.792969 29.1875 20.800781 29.191406 L 20.921875 29.195312 C 20.980469 29.195312 21.035156 29.195312 21.09375 29.191406 C 21.152344 29.1875 21.207031 29.183594 21.265625 29.179688 C 21.324219 29.171875 21.386719 29.167969 21.449219 29.15625 C 21.488281 29.152344 21.53125 29.144531 21.570312 29.136719 C 21.664062 29.117188 21.757812 29.097656 21.847656 29.078125 C 21.988281 29.050781 22.125 29.019531 22.265625 28.992188 C 22.300781 28.988281 22.324219 28.960938 22.320312 28.925781 C 22.3125 28.894531 22.285156 28.871094 22.253906 28.875 C 22.082031 28.886719 21.910156 28.902344 21.742188 28.921875 Z M 25.914062 30.789062 C 25.78125 30.464844 25.617188 30.15625 25.414062 29.886719 C 25.328125 29.773438 25.230469 29.667969 25.128906 29.570312 C 24.902344 29.347656 24.644531 29.15625 24.414062 28.929688 C 24.339844 28.855469 24.269531 28.78125 24.207031 28.703125 C 24.140625 28.621094 24.082031 28.535156 24.027344 28.449219 C 24.011719 28.425781 23.984375 28.355469 23.957031 28.300781 C 23.957031 28.296875 23.957031 28.296875 23.957031 28.296875 C 24 28.117188 24.042969 27.933594 24.054688 27.757812 C 24.058594 27.691406 24.058594 27.625 24.050781 27.5625 C 24.039062 27.453125 24.011719 27.351562 23.960938 27.265625 C 23.925781 27.207031 23.863281 27.144531 23.792969 27.085938 C 23.65625 26.976562 23.472656 26.871094 23.378906 26.792969 C 23.355469 26.773438 23.324219 26.777344 23.304688 26.796875 C 23.28125 26.820312 23.285156 26.855469 23.308594 26.875 C 23.394531 26.957031 23.558594 27.085938 23.683594 27.210938 C 23.734375 27.261719 23.777344 27.308594 23.800781 27.355469 C 23.835938 27.421875 23.851562 27.5 23.859375 27.582031 C 23.863281 27.632812 23.863281 27.691406 23.863281 27.75 C 23.859375 27.914062 23.828125 28.09375 23.800781 28.265625 C 23.765625 28.464844 23.734375 28.652344 23.738281 28.808594 C 23.738281 28.839844 23.765625 28.867188 23.800781 28.867188 C 23.832031 28.867188 23.859375 28.839844 23.859375 28.808594 C 23.863281 28.714844 23.886719 28.605469 23.910156 28.492188 L 23.917969 28.511719 C 23.972656 28.605469 24.03125 28.699219 24.09375 28.785156 C 24.15625 28.875 24.226562 28.957031 24.300781 29.039062 C 24.523438 29.273438 24.769531 29.476562 24.996094 29.707031 C 25.089844 29.800781 25.179688 29.894531 25.261719 30.003906 C 25.460938 30.257812 25.621094 30.550781 25.753906 30.855469 C 25.957031 31.316406 26.101562 31.8125 26.234375 32.277344 C 26.242188 32.308594 26.277344 32.328125 26.308594 32.320312 C 26.339844 32.3125 26.359375 32.28125 26.347656 32.25 C 26.234375 31.773438 26.105469 31.261719 25.914062 30.789062 Z M 5.683594 31.945312 C 5.570312 32.046875 5.460938 32.15625 5.351562 32.261719 C 5.28125 32.335938 5.214844 32.414062 5.144531 32.488281 C 5.089844 32.546875 5.039062 32.605469 4.988281 32.667969 C 4.9375 32.730469 4.886719 32.792969 4.839844 32.855469 C 4.8125 32.890625 4.777344 32.964844 4.75 33.019531 C 4.746094 33.023438 4.742188 33.03125 4.738281 33.039062 C 4.707031 33.039062 4.683594 33.066406 4.6875 33.09375 C 4.6875 33.132812 4.707031 33.152344 4.71875 33.160156 C 4.738281 33.167969 4.757812 33.167969 4.78125 33.15625 C 4.796875 33.152344 4.8125 33.132812 4.835938 33.101562 C 4.867188 33.058594 4.917969 32.980469 4.949219 32.949219 L 5.277344 32.613281 C 5.375 32.511719 5.476562 32.414062 5.574219 32.3125 C 5.722656 32.160156 5.867188 32.003906 6.015625 31.851562 C 6.125 31.746094 6.234375 31.640625 6.34375 31.539062 C 6.371094 31.519531 6.375 31.480469 6.351562 31.457031 C 6.332031 31.429688 6.292969 31.425781 6.269531 31.449219 C 6.066406 31.605469 5.871094 31.769531 5.683594 31.945312 Z M 10.597656 8.980469 C 10.597656 8.980469 10.597656 8.984375 10.597656 8.984375 C 10.597656 8.988281 10.59375 8.988281 10.59375 8.988281 L 10.59375 8.992188 C 10.59375 8.992188 10.59375 8.988281 10.597656 8.984375 Z M 10.914062 9.476562 C 10.957031 9.566406 10.996094 9.65625 11.042969 9.734375 C 11.0625 9.761719 11.058594 9.796875 11.03125 9.816406 C 11.003906 9.835938 10.96875 9.832031 10.949219 9.804688 C 10.871094 9.71875 10.796875 9.617188 10.734375 9.511719 C 10.703125 9.460938 10.671875 9.410156 10.644531 9.359375 C 10.617188 9.304688 10.597656 9.25 10.574219 9.203125 C 10.570312 9.183594 10.507812 9.0625 10.496094 9.011719 C 10.488281 8.972656 10.492188 8.949219 10.5 8.9375 C 10.515625 8.914062 10.550781 8.90625 10.574219 8.925781 C 10.589844 8.933594 10.597656 8.949219 10.597656 8.964844 C 10.601562 8.964844 10.601562 8.964844 10.601562 8.96875 C 10.601562 8.96875 10.597656 8.964844 10.597656 8.964844 L 10.597656 8.976562 C 10.597656 8.976562 10.601562 8.96875 10.601562 8.96875 C 10.628906 9.011719 10.710938 9.105469 10.71875 9.117188 C 10.742188 9.152344 10.769531 9.1875 10.789062 9.226562 C 10.804688 9.25 10.820312 9.277344 10.832031 9.300781 C 10.863281 9.359375 10.886719 9.417969 10.914062 9.476562 Z M 13.9375 11.246094 C 13.671875 11.242188 13.347656 11.191406 12.984375 11.058594 C 12.886719 11.023438 12.789062 10.980469 12.683594 10.933594 C 12.589844 10.890625 12.492188 10.839844 12.394531 10.785156 C 12.136719 10.636719 11.867188 10.453125 11.601562 10.203125 C 11.578125 10.179688 11.546875 10.179688 11.523438 10.203125 C 11.503906 10.222656 11.503906 10.257812 11.523438 10.277344 C 11.671875 10.4375 11.820312 10.578125 11.96875 10.699219 C 12.082031 10.789062 12.191406 10.867188 12.304688 10.9375 C 12.402344 11.003906 12.503906 11.058594 12.601562 11.105469 C 12.710938 11.160156 12.816406 11.203125 12.921875 11.242188 C 13.230469 11.347656 13.519531 11.390625 13.765625 11.402344 C 14.203125 11.414062 14.515625 11.316406 14.621094 11.246094 C 14.652344 11.230469 14.660156 11.195312 14.640625 11.164062 C 14.625 11.136719 14.585938 11.128906 14.558594 11.144531 C 14.476562 11.195312 14.25 11.25 13.9375 11.246094 Z M 16.160156 5.511719 C 16.085938 5.496094 16.011719 5.484375 15.9375 5.476562 C 15.886719 5.472656 15.835938 5.472656 15.785156 5.472656 C 15.730469 5.472656 15.675781 5.476562 15.617188 5.480469 C 15.5625 5.484375 15.507812 5.492188 15.453125 5.503906 C 15.441406 5.503906 15.34375 5.539062 15.300781 5.550781 C 15.292969 5.554688 15.289062 5.554688 15.285156 5.554688 C 15.285156 5.558594 15.28125 5.558594 15.28125 5.558594 C 15.277344 5.558594 15.273438 5.5625 15.273438 5.5625 C 15.265625 5.566406 15.261719 5.570312 15.257812 5.574219 C 15.25 5.585938 15.242188 5.597656 15.242188 5.605469 C 15.242188 5.625 15.25 5.640625 15.269531 5.652344 C 15.28125 5.664062 15.296875 5.664062 15.3125 5.660156 C 15.316406 5.683594 15.320312 5.679688 15.324219 5.660156 C 15.320312 5.660156 15.320312 5.660156 15.316406 5.660156 L 15.324219 5.65625 L 15.324219 5.660156 C 15.324219 5.660156 15.324219 5.660156 15.328125 5.660156 C 15.363281 5.65625 15.457031 5.640625 15.464844 5.640625 C 15.519531 5.640625 15.570312 5.644531 15.621094 5.648438 C 15.675781 5.648438 15.726562 5.652344 15.777344 5.65625 C 15.835938 5.660156 15.894531 5.667969 15.953125 5.675781 C 16.042969 5.683594 16.128906 5.691406 16.214844 5.707031 C 16.363281 5.726562 16.507812 5.757812 16.65625 5.792969 C 16.6875 5.804688 16.722656 5.785156 16.730469 5.753906 C 16.742188 5.722656 16.722656 5.691406 16.695312 5.679688 C 16.515625 5.613281 16.339844 5.550781 16.160156 5.511719 Z M 13.953125 5.511719 C 13.96875 5.484375 13.957031 5.449219 13.925781 5.433594 C 13.773438 5.34375 13.597656 5.292969 13.414062 5.269531 C 13.257812 5.246094 13.097656 5.242188 12.941406 5.25 C 12.832031 5.257812 12.730469 5.269531 12.628906 5.285156 C 12.554688 5.296875 12.476562 5.304688 12.402344 5.320312 C 12.347656 5.328125 12.296875 5.339844 12.246094 5.351562 L 12.121094 5.386719 C 12.109375 5.386719 12.089844 5.402344 12.078125 5.410156 C 12.074219 5.410156 12.070312 5.410156 12.0625 5.414062 C 12.035156 5.421875 12.019531 5.453125 12.027344 5.480469 C 12.03125 5.5 12.046875 5.511719 12.0625 5.515625 C 12.074219 5.523438 12.085938 5.523438 12.101562 5.519531 C 12.113281 5.519531 12.136719 5.503906 12.148438 5.5 L 12.269531 5.484375 L 12.648438 5.464844 C 12.746094 5.457031 12.847656 5.449219 12.953125 5.445312 C 13.097656 5.433594 13.25 5.425781 13.398438 5.433594 C 13.566406 5.445312 13.726562 5.472656 13.875 5.539062 C 13.902344 5.554688 13.9375 5.542969 13.953125 5.511719 Z M 13.761719 9.664062 L 13.753906 9.667969 L 13.75 9.667969 C 13.753906 9.667969 13.757812 9.667969 13.761719 9.664062 Z M 14.257812 9.609375 C 14.253906 9.609375 14.253906 9.609375 14.253906 9.609375 C 14.25 9.632812 14.3125 9.613281 14.324219 9.617188 C 14.34375 9.632812 14.359375 9.644531 14.359375 9.664062 C 14.359375 9.675781 14.367188 9.699219 14.339844 9.71875 C 14.324219 9.738281 14.296875 9.742188 14.277344 9.734375 C 14.265625 9.738281 14.253906 9.746094 14.246094 9.746094 L 14.144531 9.75 C 14.09375 9.75 14.046875 9.753906 14 9.75 C 13.980469 9.746094 13.960938 9.746094 13.945312 9.742188 C 13.914062 9.734375 13.886719 9.726562 13.859375 9.714844 L 13.769531 9.683594 C 13.765625 9.679688 13.753906 9.671875 13.746094 9.671875 C 13.742188 9.671875 13.738281 9.675781 13.738281 9.671875 C 13.730469 9.671875 13.722656 9.667969 13.714844 9.664062 C 13.699219 9.664062 13.695312 9.652344 13.691406 9.644531 C 13.675781 9.632812 13.683594 9.617188 13.683594 9.601562 C 13.683594 9.589844 13.695312 9.578125 13.722656 9.5625 C 13.726562 9.5625 13.730469 9.5625 13.738281 9.5625 C 13.75 9.558594 13.78125 9.554688 13.785156 9.554688 L 13.886719 9.550781 C 13.914062 9.550781 13.941406 9.550781 13.96875 9.550781 C 13.988281 9.554688 14.007812 9.554688 14.023438 9.558594 C 14.070312 9.566406 14.113281 9.578125 14.160156 9.585938 Z M 14.203125 8.976562 C 14.128906 8.96875 14.054688 8.957031 13.984375 8.953125 C 13.910156 8.945312 13.835938 8.945312 13.761719 8.941406 L 13.421875 8.941406 C 13.40625 8.941406 13.308594 8.933594 13.269531 8.9375 C 13.242188 8.9375 13.226562 8.945312 13.222656 8.953125 C 13.207031 8.96875 13.195312 8.984375 13.203125 9.003906 C 13.207031 9.035156 13.234375 9.054688 13.265625 9.046875 C 13.265625 9.046875 13.269531 9.046875 13.269531 9.046875 C 13.273438 9.046875 13.28125 9.042969 13.285156 9.039062 L 13.277344 9.046875 C 13.3125 9.050781 13.394531 9.074219 13.40625 9.074219 C 13.464844 9.085938 13.519531 9.09375 13.578125 9.101562 C 13.636719 9.109375 13.695312 9.117188 13.75 9.125 C 13.816406 9.128906 13.878906 9.136719 13.945312 9.140625 C 13.988281 9.144531 14.03125 9.152344 14.074219 9.152344 C 14.175781 9.160156 14.277344 9.167969 14.378906 9.175781 C 14.53125 9.1875 14.679688 9.199219 14.835938 9.210938 C 14.867188 9.214844 14.898438 9.191406 14.902344 9.160156 C 14.90625 9.125 14.882812 9.097656 14.851562 9.09375 C 14.632812 9.054688 14.417969 9.011719 14.203125 8.976562 Z M 15.09375 7.613281 C 15.066406 7.550781 15.03125 7.496094 15 7.433594 C 14.988281 7.40625 14.953125 7.390625 14.921875 7.402344 C 14.894531 7.414062 14.878906 7.449219 14.890625 7.480469 C 14.910156 7.542969 14.941406 7.601562 14.964844 7.667969 C 14.972656 7.6875 14.980469 7.714844 14.984375 7.738281 C 14.988281 7.757812 14.988281 7.777344 14.988281 7.792969 C 14.988281 7.8125 14.984375 7.832031 14.980469 7.847656 C 14.964844 7.925781 14.949219 7.964844 14.910156 7.972656 C 14.894531 7.976562 14.878906 7.972656 14.859375 7.96875 C 14.835938 7.964844 14.808594 7.953125 14.78125 7.945312 C 14.714844 7.925781 14.648438 7.90625 14.582031 7.894531 C 14.515625 7.890625 14.453125 7.90625 14.390625 7.90625 C 14.375 7.90625 14.355469 7.90625 14.339844 7.902344 C 14.304688 7.890625 14.199219 7.808594 14.144531 7.785156 C 14.113281 7.777344 14.09375 7.773438 14.078125 7.777344 C 14.050781 7.785156 14.035156 7.816406 14.042969 7.84375 C 14.046875 7.867188 14.066406 7.882812 14.089844 7.882812 C 14.089844 7.886719 14.089844 7.886719 14.09375 7.886719 L 14.089844 7.882812 C 14.097656 7.882812 14.101562 7.882812 14.109375 7.882812 C 14.105469 7.882812 14.097656 7.886719 14.09375 7.886719 C 14.125 7.90625 14.171875 7.953125 14.210938 7.988281 C 14.238281 8.015625 14.269531 8.035156 14.28125 8.042969 C 14.316406 8.058594 14.347656 8.066406 14.382812 8.070312 C 14.4375 8.078125 14.496094 8.066406 14.554688 8.078125 C 14.621094 8.089844 14.695312 8.125 14.757812 8.140625 C 14.832031 8.164062 14.902344 8.171875 14.957031 8.15625 C 15.042969 8.128906 15.121094 8.0625 15.144531 7.875 C 15.148438 7.847656 15.152344 7.816406 15.148438 7.789062 C 15.144531 7.757812 15.140625 7.730469 15.132812 7.699219 C 15.121094 7.667969 15.109375 7.640625 15.09375 7.613281 Z M 16.125 6.414062 C 16.054688 6.511719 15.953125 6.617188 15.839844 6.6875 C 15.777344 6.726562 15.710938 6.753906 15.640625 6.761719 C 15.601562 6.765625 15.558594 6.761719 15.515625 6.746094 C 15.484375 6.738281 15.453125 6.71875 15.429688 6.695312 C 15.378906 6.648438 15.335938 6.589844 15.300781 6.539062 L 15.230469 6.4375 C 15.21875 6.421875 15.195312 6.378906 15.183594 6.371094 C 15.160156 6.359375 15.144531 6.359375 15.128906 6.367188 C 15.117188 6.371094 15.097656 6.378906 15.09375 6.414062 C 15.09375 6.429688 15.097656 6.449219 15.113281 6.457031 C 15.113281 6.46875 15.121094 6.488281 15.125 6.496094 L 15.175781 6.609375 C 15.210938 6.679688 15.246094 6.753906 15.300781 6.816406 C 15.34375 6.867188 15.394531 6.902344 15.453125 6.929688 C 15.511719 6.949219 15.566406 6.957031 15.621094 6.957031 C 15.703125 6.953125 15.785156 6.925781 15.855469 6.882812 C 16.015625 6.789062 16.144531 6.625 16.222656 6.480469 C 16.242188 6.453125 16.234375 6.414062 16.207031 6.398438 C 16.179688 6.378906 16.144531 6.386719 16.125 6.414062 Z M 13.300781 6.539062 C 13.242188 6.5625 13.183594 6.570312 13.113281 6.5625 C 13.074219 6.554688 13.03125 6.546875 12.988281 6.527344 C 12.945312 6.507812 12.902344 6.484375 12.859375 6.457031 C 12.816406 6.429688 12.777344 6.398438 12.738281 6.363281 L 12.636719 6.261719 C 12.636719 6.242188 12.625 6.226562 12.605469 6.21875 C 12.582031 6.203125 12.5625 6.214844 12.550781 6.222656 C 12.535156 6.230469 12.527344 6.246094 12.527344 6.269531 C 12.527344 6.285156 12.554688 6.34375 12.554688 6.347656 C 12.5625 6.367188 12.574219 6.382812 12.582031 6.394531 C 12.597656 6.417969 12.613281 6.441406 12.628906 6.460938 C 12.667969 6.511719 12.707031 6.554688 12.753906 6.59375 C 12.800781 6.636719 12.855469 6.671875 12.910156 6.699219 C 12.960938 6.722656 13.007812 6.738281 13.054688 6.746094 C 13.140625 6.761719 13.21875 6.753906 13.289062 6.730469 C 13.359375 6.707031 13.425781 6.667969 13.484375 6.617188 C 13.558594 6.550781 13.625 6.46875 13.679688 6.375 C 13.699219 6.347656 13.695312 6.3125 13.664062 6.292969 C 13.640625 6.273438 13.601562 6.28125 13.585938 6.308594 C 13.503906 6.410156 13.40625 6.492188 13.300781 6.539062 Z M 10.1875 6.078125 C 10.144531 6.019531 10.09375 5.964844 10.039062 5.914062 C 10.003906 5.882812 9.964844 5.855469 9.929688 5.828125 C 9.875 5.789062 9.816406 5.75 9.761719 5.710938 L 9.664062 5.640625 C 9.648438 5.632812 9.628906 5.601562 9.621094 5.597656 C 9.597656 5.585938 9.578125 5.585938 9.566406 5.59375 C 9.554688 5.597656 9.527344 5.613281 9.535156 5.652344 C 9.535156 5.667969 9.546875 5.679688 9.558594 5.691406 C 9.5625 5.703125 9.578125 5.722656 9.582031 5.726562 L 9.671875 5.816406 L 9.875 6.015625 C 9.875 6.023438 9.867188 6.023438 9.867188 6.035156 C 9.867188 6.039062 9.878906 6.058594 9.882812 6.074219 L 9.875 6.144531 C 9.867188 6.179688 9.855469 6.210938 9.839844 6.242188 C 9.820312 6.289062 9.796875 6.335938 9.769531 6.386719 C 9.742188 6.433594 9.714844 6.484375 9.691406 6.535156 C 9.675781 6.574219 9.660156 6.613281 9.648438 6.65625 C 9.621094 6.78125 9.632812 6.890625 9.679688 6.984375 C 9.742188 7.117188 9.859375 7.222656 9.980469 7.320312 C 10.003906 7.339844 10.039062 7.339844 10.0625 7.316406 C 10.085938 7.292969 10.085938 7.253906 10.058594 7.230469 C 9.984375 7.152344 9.910156 7.066406 9.863281 6.972656 C 9.820312 6.894531 9.804688 6.804688 9.835938 6.707031 C 9.84375 6.671875 9.855469 6.640625 9.867188 6.613281 C 9.890625 6.5625 9.910156 6.511719 9.933594 6.460938 C 9.949219 6.414062 9.96875 6.367188 9.980469 6.320312 C 9.996094 6.265625 10.003906 6.214844 10.007812 6.160156 C 10.015625 6.171875 10.027344 6.183594 10.035156 6.195312 C 10.09375 6.273438 10.144531 6.351562 10.1875 6.4375 C 10.257812 6.585938 10.308594 6.742188 10.34375 6.910156 C 10.347656 6.941406 10.378906 6.964844 10.410156 6.960938 C 10.445312 6.953125 10.464844 6.925781 10.460938 6.890625 C 10.441406 6.707031 10.410156 6.53125 10.347656 6.367188 C 10.308594 6.265625 10.257812 6.167969 10.1875 6.078125 Z M 10 4.460938 C 10.058594 4.519531 10.125 4.585938 10.195312 4.65625 C 10.226562 4.683594 10.257812 4.714844 10.289062 4.742188 C 10.339844 4.789062 10.390625 4.832031 10.4375 4.875 C 10.59375 5.007812 10.734375 5.128906 10.792969 5.203125 C 10.8125 5.226562 10.847656 5.234375 10.875 5.214844 C 10.902344 5.195312 10.910156 5.160156 10.890625 5.132812 C 10.84375 5.058594 10.742188 4.9375 10.621094 4.804688 C 10.558594 4.738281 10.492188 4.671875 10.425781 4.605469 C 10.390625 4.574219 10.359375 4.542969 10.324219 4.511719 C 10.289062 4.484375 10.253906 4.453125 10.21875 4.425781 C 10.046875 4.292969 9.902344 4.195312 9.871094 4.179688 C 9.847656 4.164062 9.8125 4.167969 9.796875 4.195312 C 9.78125 4.21875 9.789062 4.253906 9.8125 4.269531 C 9.832031 4.285156 9.902344 4.359375 10 4.460938 Z M 9.816406 4.546875 C 9.8125 4.539062 9.8125 4.535156 9.808594 4.539062 L 9.808594 4.542969 C 9.8125 4.542969 9.8125 4.542969 9.816406 4.546875 Z M 9.71875 4.550781 C 9.710938 4.558594 9.707031 4.582031 9.722656 4.605469 C 9.726562 4.613281 9.734375 4.621094 9.746094 4.632812 C 9.789062 4.671875 9.898438 4.769531 9.902344 4.773438 L 10.160156 5.019531 C 10.214844 5.070312 10.265625 5.121094 10.316406 5.171875 C 10.394531 5.25 10.46875 5.328125 10.539062 5.410156 C 10.621094 5.503906 10.695312 5.597656 10.757812 5.699219 C 10.777344 5.730469 10.8125 5.738281 10.839844 5.722656 C 10.867188 5.707031 10.878906 5.671875 10.863281 5.640625 C 10.792969 5.5 10.710938 5.363281 10.613281 5.234375 C 10.554688 5.15625 10.492188 5.082031 10.429688 5.011719 C 10.382812 4.964844 10.335938 4.921875 10.289062 4.878906 C 10.242188 4.839844 10.195312 4.800781 10.144531 4.765625 C 10.097656 4.726562 10.046875 4.691406 9.992188 4.65625 C 9.988281 4.65625 9.863281 4.578125 9.816406 4.546875 C 9.816406 4.550781 9.816406 4.558594 9.820312 4.5625 C 9.816406 4.554688 9.8125 4.546875 9.808594 4.542969 C 9.808594 4.542969 9.808594 4.539062 9.808594 4.539062 C 9.800781 4.535156 9.796875 4.527344 9.789062 4.523438 C 9.761719 4.511719 9.730469 4.523438 9.71875 4.550781 Z M 9.714844 4.832031 C 9.753906 4.867188 9.851562 4.996094 9.933594 5.09375 C 9.976562 5.144531 10.015625 5.183594 10.03125 5.207031 C 10.078125 5.253906 10.121094 5.300781 10.160156 5.347656 C 10.226562 5.417969 10.289062 5.488281 10.351562 5.5625 C 10.417969 5.648438 10.480469 5.734375 10.539062 5.824219 C 10.558594 5.851562 10.59375 5.863281 10.621094 5.847656 C 10.652344 5.832031 10.660156 5.792969 10.644531 5.765625 C 10.585938 5.636719 10.515625 5.515625 10.4375 5.398438 C 10.390625 5.328125 10.339844 5.261719 10.285156 5.195312 C 10.246094 5.152344 10.207031 5.113281 10.167969 5.074219 C 10.136719 5.046875 10.0625 4.976562 9.984375 4.90625 C 9.902344 4.835938 9.820312 4.769531 9.785156 4.746094 C 9.761719 4.726562 9.730469 4.730469 9.710938 4.753906 C 9.691406 4.777344 9.695312 4.8125 9.714844 4.832031 Z M 17.792969 5.285156 C 17.386719 5.347656 16.3125 5.050781 15.132812 5.046875 C 13.875 5.039062 12.511719 5.316406 12.261719 5.269531 C 11.773438 5.183594 11.378906 4.605469 11.378906 4.605469 L 10.371094 4.234375 C 10.425781 4.28125 10.476562 4.320312 10.496094 4.335938 C 10.527344 4.359375 10.554688 4.382812 10.582031 4.410156 C 10.648438 4.46875 10.710938 4.535156 10.769531 4.601562 C 10.851562 4.695312 10.929688 4.796875 11 4.902344 C 11.019531 4.925781 11.015625 4.964844 10.988281 4.984375 C 10.964844 5.003906 10.925781 5 10.90625 4.972656 C 10.824219 4.882812 10.738281 4.800781 10.648438 4.71875 C 10.585938 4.664062 10.519531 4.609375 10.457031 4.554688 C 10.429688 4.53125 10.402344 4.507812 10.371094 4.484375 C 10.347656 4.460938 10.277344 4.394531 10.203125 4.324219 C 10.148438 4.265625 10.089844 4.207031 10.042969 4.160156 C 10.007812 4.128906 9.984375 4.101562 9.96875 4.09375 C 9.964844 4.09375 9.964844 4.085938 9.964844 4.085938 L 9.722656 3.996094 C 9.722656 3.996094 9.46875 1.746094 11.3125 0.503906 C 13.03125 -0.652344 16.101562 0.421875 16.757812 1.292969 C 17.34375 2.070312 17.101562 4.332031 17.265625 4.472656 C 17.433594 4.613281 18.113281 5.230469 17.792969 5.285156" fill="#3b435f" fill-rule="evenodd"/></g><g id="change4_2"><path d="M 22.351562 82.421875 C 22.328125 82.398438 22.289062 82.402344 22.265625 82.425781 C 21.832031 82.925781 21.25 83.234375 20.613281 83.421875 C 20.054688 83.589844 19.453125 83.660156 18.867188 83.679688 C 18.457031 83.695312 18.054688 83.6875 17.679688 83.664062 C 17.433594 83.652344 17.183594 83.632812 16.9375 83.617188 C 16.691406 83.597656 16.445312 83.574219 16.199219 83.546875 L 15.699219 83.488281 C 15.652344 83.480469 15.558594 83.488281 15.503906 83.480469 C 15.5 83.46875 15.492188 83.460938 15.484375 83.453125 C 15.460938 83.433594 15.429688 83.4375 15.410156 83.460938 C 15.386719 83.484375 15.386719 83.507812 15.390625 83.523438 C 15.394531 83.546875 15.414062 83.574219 15.457031 83.585938 C 15.507812 83.597656 15.625 83.59375 15.679688 83.601562 L 16.179688 83.683594 C 16.425781 83.71875 16.675781 83.75 16.921875 83.777344 C 17.171875 83.804688 17.417969 83.824219 17.667969 83.84375 C 18.046875 83.871094 18.457031 83.886719 18.871094 83.871094 C 19.476562 83.847656 20.09375 83.765625 20.664062 83.582031 C 21.320312 83.371094 21.914062 83.03125 22.355469 82.503906 C 22.378906 82.476562 22.375 82.441406 22.351562 82.421875 Z M 8.757812 84.203125 C 8.460938 84.539062 7.894531 84.703125 7.273438 84.765625 C 6.78125 84.820312 6.257812 84.800781 5.792969 84.753906 C 5.40625 84.710938 5.066406 84.648438 4.832031 84.566406 C 4.640625 84.503906 4.449219 84.429688 4.257812 84.347656 C 4.070312 84.265625 3.882812 84.179688 3.703125 84.085938 C 3.601562 84.03125 3.394531 84.007812 3.269531 83.96875 C 3.25 83.960938 3.238281 83.957031 3.222656 83.953125 C 3.21875 83.949219 3.210938 83.945312 3.207031 83.941406 C 3.207031 83.941406 3.203125 83.9375 3.199219 83.9375 C 3.203125 83.933594 3.207031 83.929688 3.207031 83.929688 C 3.226562 83.90625 3.21875 83.871094 3.199219 83.851562 C 3.171875 83.835938 3.140625 83.839844 3.121094 83.863281 C 3.097656 83.890625 3.089844 83.917969 3.089844 83.945312 C 3.09375 83.980469 3.117188 84.019531 3.164062 84.046875 C 3.265625 84.109375 3.523438 84.136719 3.636719 84.203125 C 3.820312 84.308594 4.003906 84.40625 4.195312 84.496094 C 4.382812 84.585938 4.578125 84.664062 4.773438 84.738281 C 5.015625 84.824219 5.367188 84.902344 5.773438 84.945312 C 6.25 84.996094 6.789062 84.996094 7.292969 84.933594 C 7.953125 84.847656 8.542969 84.644531 8.847656 84.277344 C 8.867188 84.253906 8.867188 84.214844 8.839844 84.195312 C 8.816406 84.175781 8.78125 84.175781 8.757812 84.203125 Z M 15.914062 47.863281 C 15.882812 47.847656 15.847656 47.859375 15.832031 47.886719 C 15.558594 48.429688 15.210938 48.953125 14.867188 49.480469 C 14.636719 49.828125 14.40625 50.179688 14.199219 50.535156 C 14.105469 50.691406 14.019531 50.847656 13.9375 51.003906 C 13.8125 51.25 13.699219 51.496094 13.605469 51.746094 C 13.519531 51.96875 13.445312 52.199219 13.378906 52.429688 C 13.308594 52.660156 13.25 52.890625 13.195312 53.121094 L 13.082031 53.601562 C 13.070312 53.65625 13.03125 53.753906 13.007812 53.820312 C 12.996094 53.855469 12.992188 53.886719 12.996094 53.902344 C 13.003906 53.929688 13.015625 53.945312 13.035156 53.953125 C 13.050781 53.957031 13.074219 53.960938 13.105469 53.9375 C 13.132812 53.921875 13.136719 53.890625 13.121094 53.863281 C 13.117188 53.863281 13.117188 53.859375 13.113281 53.855469 C 13.117188 53.847656 13.121094 53.835938 13.125 53.828125 C 13.152344 53.761719 13.1875 53.679688 13.203125 53.632812 L 13.328125 53.15625 C 13.394531 52.929688 13.460938 52.703125 13.535156 52.476562 C 13.609375 52.253906 13.6875 52.03125 13.777344 51.8125 C 13.871094 51.570312 13.984375 51.332031 14.109375 51.09375 C 14.1875 50.9375 14.273438 50.785156 14.363281 50.628906 C 14.566406 50.273438 14.789062 49.921875 15.007812 49.570312 C 15.34375 49.03125 15.675781 48.496094 15.941406 47.941406 C 15.953125 47.914062 15.941406 47.875 15.914062 47.863281 Z M 4.464844 49.019531 C 4.46875 49.019531 4.46875 49.023438 4.46875 49.027344 L 4.472656 49.03125 L 4.46875 49.027344 L 4.46875 49.019531 Z M 4.386719 49.089844 C 4.371094 49.078125 4.351562 49.050781 4.378906 49.011719 C 4.382812 49.003906 4.398438 48.988281 4.421875 48.96875 C 4.519531 48.894531 4.773438 48.726562 4.792969 48.714844 C 4.9375 48.605469 5.082031 48.492188 5.21875 48.371094 C 5.355469 48.25 5.484375 48.121094 5.609375 47.988281 C 5.765625 47.828125 5.914062 47.65625 6.058594 47.480469 C 6.277344 47.222656 6.488281 46.953125 6.683594 46.675781 C 7.015625 46.214844 7.316406 45.730469 7.589844 45.238281 C 7.605469 45.207031 7.640625 45.199219 7.667969 45.210938 C 7.699219 45.226562 7.710938 45.261719 7.695312 45.292969 C 7.433594 45.800781 7.148438 46.300781 6.828125 46.777344 C 6.636719 47.0625 6.429688 47.34375 6.207031 47.605469 C 6.058594 47.785156 5.902344 47.953125 5.738281 48.117188 C 5.605469 48.25 5.46875 48.375 5.324219 48.492188 C 5.175781 48.613281 5.023438 48.722656 4.867188 48.824219 C 4.851562 48.835938 4.585938 48.988281 4.488281 49.058594 C 4.484375 49.0625 4.476562 49.0625 4.472656 49.066406 C 4.472656 49.0625 4.472656 49.054688 4.472656 49.050781 C 4.472656 49.058594 4.472656 49.0625 4.46875 49.070312 C 4.464844 49.074219 4.460938 49.074219 4.464844 49.078125 L 4.460938 49.082031 C 4.445312 49.105469 4.410156 49.109375 4.386719 49.089844 Z M 17.605469 44.867188 C 17.613281 44.863281 17.617188 44.859375 17.609375 44.855469 C 17.609375 44.851562 17.609375 44.859375 17.605469 44.863281 Z M 17.535156 44.894531 C 17.507812 44.882812 17.496094 44.851562 17.507812 44.824219 C 17.523438 44.773438 17.554688 44.757812 17.578125 44.757812 C 17.605469 44.753906 17.648438 44.773438 17.679688 44.824219 C 17.742188 44.917969 17.816406 45.132812 17.882812 45.222656 C 17.984375 45.371094 18.09375 45.515625 18.203125 45.660156 C 18.3125 45.800781 18.421875 45.941406 18.539062 46.082031 C 18.671875 46.242188 18.8125 46.402344 18.960938 46.558594 C 19.175781 46.789062 19.40625 47.011719 19.648438 47.222656 C 20.054688 47.574219 20.496094 47.886719 20.960938 48.121094 C 20.988281 48.132812 21 48.167969 20.988281 48.199219 C 20.972656 48.226562 20.9375 48.242188 20.90625 48.226562 C 20.425781 48.003906 19.960938 47.703125 19.535156 47.355469 C 19.28125 47.148438 19.039062 46.925781 18.820312 46.691406 C 18.667969 46.53125 18.527344 46.363281 18.394531 46.195312 C 18.28125 46.050781 18.175781 45.90625 18.070312 45.753906 C 17.964844 45.605469 17.863281 45.453125 17.765625 45.300781 C 17.71875 45.226562 17.667969 45.078125 17.621094 44.964844 C 17.609375 44.933594 17.597656 44.910156 17.585938 44.886719 C 17.574219 44.898438 17.554688 44.902344 17.535156 44.894531 Z M 4.46875 49.070312 L 4.472656 49.066406 C 4.472656 49.078125 4.472656 49.085938 4.464844 49.078125 C 4.464844 49.074219 4.46875 49.074219 4.46875 49.070312" fill="#fce8bc" fill-rule="evenodd"/></g><g id="change4_3"><path d="M 14.222656 0.542969 C 14.210938 0.542969 14.207031 0.546875 14.207031 0.546875 C 14.1875 0.558594 14.179688 0.574219 14.179688 0.582031 C 14.175781 0.605469 14.179688 0.628906 14.207031 0.640625 C 14.21875 0.648438 14.234375 0.648438 14.25 0.644531 C 14.257812 0.671875 14.261719 0.664062 14.261719 0.640625 L 14.257812 0.640625 L 14.261719 0.636719 L 14.261719 0.640625 C 14.265625 0.640625 14.269531 0.640625 14.277344 0.640625 C 14.347656 0.628906 14.523438 0.601562 14.546875 0.605469 C 14.652344 0.613281 14.75 0.628906 14.851562 0.648438 C 14.949219 0.671875 15.050781 0.699219 15.148438 0.730469 C 15.269531 0.769531 15.394531 0.820312 15.515625 0.875 C 15.695312 0.953125 15.871094 1.046875 16.039062 1.15625 C 16.320312 1.339844 16.578125 1.5625 16.769531 1.824219 C 16.789062 1.851562 16.828125 1.855469 16.851562 1.839844 C 16.878906 1.820312 16.886719 1.78125 16.867188 1.753906 C 16.679688 1.472656 16.425781 1.21875 16.140625 1.011719 C 15.96875 0.886719 15.785156 0.78125 15.59375 0.695312 C 15.464844 0.636719 15.332031 0.59375 15.199219 0.554688 C 15.09375 0.527344 14.988281 0.503906 14.878906 0.488281 C 14.769531 0.472656 14.660156 0.464844 14.550781 0.46875 C 14.523438 0.46875 14.332031 0.511719 14.253906 0.53125 C 14.238281 0.535156 14.226562 0.539062 14.222656 0.542969 Z M 12.015625 2.117188 C 12.101562 1.996094 12.191406 1.871094 12.285156 1.753906 C 12.382812 1.636719 12.480469 1.519531 12.582031 1.410156 C 12.898438 1.066406 13.253906 0.773438 13.636719 0.566406 C 13.664062 0.554688 13.675781 0.519531 13.660156 0.496094 C 13.648438 0.46875 13.613281 0.457031 13.589844 0.472656 C 13.179688 0.664062 12.796875 0.945312 12.453125 1.289062 C 12.34375 1.398438 12.238281 1.511719 12.136719 1.632812 C 12.039062 1.753906 11.945312 1.878906 11.855469 2.007812 C 11.679688 2.265625 11.527344 2.539062 11.390625 2.816406 C 11.179688 3.253906 11.023438 3.707031 10.929688 4.132812 C 10.921875 4.164062 10.941406 4.199219 10.972656 4.203125 C 11.003906 4.210938 11.035156 4.191406 11.042969 4.160156 C 11.152344 3.75 11.324219 3.316406 11.542969 2.894531 C 11.683594 2.628906 11.839844 2.367188 12.015625 2.117188 Z M 13.320312 0.144531 L 13.320312 0.140625 L 13.320312 0.148438 L 13.320312 0.144531 C 13.320312 0.160156 13.324219 0.191406 13.328125 0.21875 C 13.332031 0.238281 13.339844 0.253906 13.34375 0.265625 C 13.363281 0.300781 13.390625 0.328125 13.417969 0.351562 C 13.457031 0.386719 13.503906 0.410156 13.550781 0.429688 C 13.574219 0.4375 13.617188 0.453125 13.671875 0.460938 C 13.703125 0.46875 13.742188 0.472656 13.785156 0.476562 C 13.898438 0.484375 14.03125 0.476562 14.132812 0.449219 C 14.261719 0.414062 14.351562 0.34375 14.347656 0.246094 C 14.351562 0.210938 14.324219 0.183594 14.292969 0.183594 C 14.257812 0.179688 14.230469 0.207031 14.230469 0.238281 C 14.226562 0.257812 14.207031 0.265625 14.1875 0.277344 C 14.144531 0.292969 14.089844 0.296875 14.03125 0.296875 C 13.945312 0.300781 13.851562 0.289062 13.769531 0.28125 C 13.699219 0.273438 13.636719 0.269531 13.609375 0.261719 C 13.574219 0.25 13.539062 0.242188 13.507812 0.222656 C 13.488281 0.214844 13.472656 0.207031 13.457031 0.1875 C 13.445312 0.175781 13.433594 0.132812 13.425781 0.117188 C 13.421875 0.101562 13.417969 0.09375 13.414062 0.09375 C 13.386719 0.0585938 13.359375 0.0625 13.339844 0.0742188 C 13.335938 0.078125 13.316406 0.0859375 13.316406 0.117188 C 13.3125 0.125 13.316406 0.132812 13.320312 0.140625 C 13.316406 0.140625 13.316406 0.144531 13.320312 0.144531 Z M 17.269531 4.511719 C 17.210938 4.484375 17.160156 4.449219 17.105469 4.414062 C 16.894531 4.261719 16.703125 4.066406 16.472656 3.933594 C 16.023438 3.679688 15.527344 3.472656 15.015625 3.367188 C 14.707031 3.304688 14.386719 3.28125 14.074219 3.304688 C 13.863281 3.320312 13.652344 3.359375 13.449219 3.421875 C 13.238281 3.488281 13.03125 3.566406 12.832031 3.652344 C 12.53125 3.78125 12.238281 3.921875 11.941406 4.050781 C 11.855469 4.089844 11.769531 4.125 11.683594 4.160156 C 11.59375 4.195312 11.507812 4.230469 11.417969 4.261719 C 11.367188 4.277344 11.269531 4.316406 11.222656 4.332031 C 11.21875 4.328125 11.214844 4.332031 11.210938 4.332031 C 11.210938 4.332031 11.210938 4.332031 11.214844 4.332031 L 11.210938 4.332031 C 11.210938 4.332031 11.210938 4.332031 11.210938 4.335938 C 11.195312 4.332031 11.179688 4.335938 11.167969 4.34375 C 11.152344 4.363281 11.152344 4.382812 11.152344 4.390625 C 11.152344 4.410156 11.160156 4.425781 11.183594 4.4375 C 11.191406 4.441406 11.210938 4.445312 11.234375 4.4375 C 11.28125 4.429688 11.398438 4.390625 11.457031 4.371094 C 11.546875 4.34375 11.636719 4.316406 11.726562 4.285156 C 11.820312 4.25 11.90625 4.21875 11.996094 4.183594 C 12.296875 4.0625 12.59375 3.933594 12.898438 3.816406 C 13.097656 3.738281 13.296875 3.664062 13.503906 3.605469 C 13.742188 3.53125 13.988281 3.496094 14.234375 3.488281 C 14.484375 3.480469 14.734375 3.5 14.984375 3.546875 C 15.476562 3.640625 15.960938 3.828125 16.402344 4.0625 C 16.632812 4.183594 16.824219 4.371094 17.035156 4.515625 C 17.09375 4.554688 17.152344 4.589844 17.214844 4.617188 C 17.242188 4.632812 17.28125 4.621094 17.292969 4.59375 C 17.308594 4.5625 17.296875 4.527344 17.269531 4.511719 Z M 11.210938 4.332031 C 11.210938 4.332031 11.210938 4.335938 11.210938 4.335938 C 11.207031 4.335938 11.207031 4.335938 11.207031 4.335938 C 11.207031 4.332031 11.210938 4.335938 11.210938 4.332031" fill="#fce8bc" fill-rule="evenodd"/></g><g id="change4_4"><path d="M 61.613281 62.25 L 60.425781 75.820312 L 63.921875 73.710938 L 64.648438 60.648438 Z M 42.589844 85.597656 L 48.15625 87.179688 L 48.933594 75.804688 L 43.3125 74.9375 Z M 44.863281 55.480469 L 41.53125 58.261719 L 40.851562 64.609375 L 36.90625 63.628906 L 37.585938 57.34375 L 41.359375 54.5625 L 44.863281 55.480469" fill="#fce8bc" fill-rule="evenodd"/></g><g clip-path="url(#d)" id="change1_5"><path d="M 49.371094 42.308594 L 49.363281 42.304688 C 49.367188 42.308594 49.371094 42.316406 49.375 42.3125 Z M 44.710938 44.988281 C 44.941406 45.046875 45.175781 45.105469 45.40625 45.160156 C 46.640625 45.46875 47.8125 45.761719 48.765625 46.003906 C 49.96875 46.304688 50.816406 46.523438 50.976562 46.5625 C 51.234375 46.472656 53.289062 45.761719 55.601562 44.960938 C 55.65625 44.941406 55.710938 44.921875 55.769531 44.902344 C 55.363281 44.574219 54.90625 44.292969 54.441406 44.042969 C 53.820312 43.699219 53.167969 43.445312 52.503906 43.21875 C 51.496094 42.882812 50.464844 42.625 49.449219 42.304688 C 49.445312 42.308594 49.441406 42.316406 49.4375 42.320312 C 49.433594 42.320312 49.417969 42.332031 49.390625 42.320312 C 49.382812 42.320312 49.378906 42.316406 49.375 42.3125 C 49.375 42.3125 49.375 42.3125 49.378906 42.308594 C 49.378906 42.308594 49.371094 42.304688 49.371094 42.300781 C 49.367188 42.304688 49.367188 42.304688 49.363281 42.304688 C 49.121094 42.398438 48.875 42.492188 48.628906 42.59375 C 47.921875 42.878906 47.167969 43.164062 46.476562 43.535156 C 46.015625 43.78125 45.585938 44.066406 45.210938 44.425781 C 45.03125 44.597656 44.875 44.796875 44.710938 44.988281 Z M 49.101562 41.917969 C 49.101562 41.914062 49.105469 41.90625 49.105469 41.898438 C 49.113281 41.871094 49.117188 41.847656 49.117188 41.828125 L 49.128906 41.355469 C 49.128906 41.042969 49.128906 40.695312 49.0625 40.367188 C 49.019531 40.15625 48.949219 39.953125 48.832031 39.773438 C 48.78125 39.691406 48.699219 39.601562 48.601562 39.542969 C 48.515625 39.492188 48.421875 39.46875 48.324219 39.507812 C 48.226562 39.546875 48.160156 39.632812 48.117188 39.730469 C 48.070312 39.835938 48.050781 39.960938 48.046875 40.0625 C 48.042969 40.351562 48.125 40.621094 48.253906 40.867188 C 48.382812 41.121094 48.5625 41.351562 48.753906 41.5625 C 48.824219 41.640625 48.898438 41.71875 48.972656 41.796875 C 49.015625 41.835938 49.058594 41.878906 49.101562 41.917969 Z M 49.339844 41.832031 L 49.660156 41.539062 C 49.851562 41.363281 50.042969 41.183594 50.214844 40.988281 C 50.324219 40.859375 50.429688 40.722656 50.515625 40.574219 C 50.566406 40.492188 50.625 40.382812 50.652344 40.269531 C 50.667969 40.210938 50.671875 40.148438 50.644531 40.09375 C 50.636719 40.070312 50.625 40.054688 50.609375 40.046875 C 50.582031 40.035156 50.546875 40.046875 50.507812 40.0625 C 50.371094 40.121094 50.226562 40.269531 50.171875 40.328125 C 50.054688 40.460938 49.953125 40.605469 49.859375 40.757812 C 49.714844 40.988281 49.597656 41.230469 49.488281 41.476562 C 49.457031 41.542969 49.425781 41.613281 49.398438 41.683594 C 49.378906 41.730469 49.355469 41.78125 49.339844 41.832031 Z M 55.921875 45.023438 C 55.835938 45.054688 55.742188 45.085938 55.65625 45.117188 C 53.1875 45.988281 51.011719 46.75 51.011719 46.75 C 50.992188 46.757812 50.972656 46.757812 50.957031 46.753906 C 50.957031 46.753906 50.933594 46.75 50.902344 46.742188 C 50.898438 46.777344 50.75 48.066406 50.546875 49.710938 C 50.507812 50.03125 50.464844 50.363281 50.421875 50.703125 C 50.378906 51.027344 50.335938 51.359375 50.292969 51.691406 C 50.203125 52.367188 50.105469 53.042969 50.019531 53.671875 C 49.789062 55.332031 49.601562 56.636719 49.601562 56.636719 C 49.601562 56.648438 49.585938 56.648438 49.578125 56.65625 C 49.953125 56.757812 50.203125 56.828125 50.289062 56.847656 C 50.5625 56.734375 52.609375 55.867188 54.914062 54.890625 C 55.363281 54.703125 55.820312 54.511719 56.277344 54.316406 C 56.40625 53.535156 56.539062 52.75 56.65625 51.964844 C 56.734375 51.425781 56.8125 50.882812 56.878906 50.335938 C 56.960938 49.65625 57.097656 48.945312 57.140625 48.238281 C 57.167969 47.769531 57.15625 47.304688 57.0625 46.851562 C 56.945312 46.300781 56.695312 45.847656 56.359375 45.460938 C 56.226562 45.304688 56.078125 45.160156 55.921875 45.023438 Z M 36.976562 43.183594 C 36.945312 43.175781 36.929688 43.148438 36.9375 43.117188 C 36.945312 43.089844 36.972656 43.074219 37 43.078125 C 37 43.078125 39.304688 43.644531 42.046875 44.324219 C 42.84375 44.523438 43.675781 44.730469 44.503906 44.9375 C 44.691406 44.714844 44.867188 44.484375 45.078125 44.285156 C 45.464844 43.917969 45.910156 43.621094 46.382812 43.367188 C 47.082031 42.992188 47.84375 42.710938 48.5625 42.425781 C 48.726562 42.359375 48.890625 42.300781 49.054688 42.238281 C 48.984375 42.234375 48.914062 42.226562 48.871094 42.230469 C 48.707031 42.238281 48.539062 42.25 48.375 42.269531 C 48.210938 42.292969 48.046875 42.316406 47.886719 42.347656 C 47.546875 42.410156 47.226562 42.507812 46.90625 42.597656 C 46.574219 42.691406 46.242188 42.78125 45.902344 42.839844 C 45.617188 42.890625 45.324219 42.917969 45.011719 42.90625 C 44.804688 42.894531 44.589844 42.878906 44.382812 42.828125 C 44.242188 42.792969 44.105469 42.746094 43.980469 42.667969 C 43.953125 42.652344 43.945312 42.617188 43.960938 42.589844 C 43.976562 42.558594 44.011719 42.550781 44.039062 42.566406 C 44.15625 42.628906 44.28125 42.671875 44.410156 42.699219 C 44.609375 42.742188 44.820312 42.75 45.019531 42.75 C 45.3125 42.753906 45.59375 42.71875 45.871094 42.664062 C 46.203125 42.597656 46.527344 42.5 46.851562 42.410156 C 47.179688 42.320312 47.511719 42.234375 47.855469 42.179688 C 48.023438 42.152344 48.191406 42.132812 48.359375 42.121094 C 48.519531 42.105469 48.675781 42.101562 48.832031 42.101562 C 48.480469 41.976562 48.128906 41.84375 47.785156 41.691406 C 47.453125 41.539062 47.035156 41.367188 46.652344 41.164062 C 46.390625 41.023438 46.140625 40.871094 45.949219 40.699219 C 45.925781 40.679688 45.925781 40.644531 45.945312 40.621094 C 45.964844 40.601562 45.996094 40.597656 46.019531 40.617188 C 46.210938 40.78125 46.449219 40.925781 46.707031 41.058594 C 47.089844 41.253906 47.507812 41.421875 47.839844 41.566406 C 48.234375 41.742188 48.636719 41.886719 49.046875 42.023438 C 48.992188 41.976562 48.941406 41.925781 48.890625 41.878906 C 48.8125 41.804688 48.734375 41.726562 48.660156 41.644531 C 48.421875 41.386719 48.195312 41.09375 48.054688 40.769531 C 47.957031 40.550781 47.902344 40.3125 47.902344 40.0625 C 47.902344 39.914062 47.933594 39.738281 48.015625 39.59375 C 48.070312 39.492188 48.15625 39.40625 48.265625 39.363281 C 48.382812 39.3125 48.5 39.320312 48.609375 39.367188 C 48.757812 39.429688 48.890625 39.558594 48.972656 39.679688 C 49.101562 39.875 49.183594 40.097656 49.230469 40.332031 C 49.304688 40.671875 49.308594 41.03125 49.308594 41.355469 L 49.308594 41.40625 L 49.3125 41.398438 C 49.425781 41.144531 49.546875 40.890625 49.695312 40.65625 C 49.792969 40.496094 49.90625 40.339844 50.027344 40.199219 C 50.105469 40.113281 50.34375 39.890625 50.527344 39.855469 C 50.59375 39.84375 50.65625 39.851562 50.707031 39.882812 C 50.753906 39.910156 50.792969 39.949219 50.824219 40.015625 C 50.863281 40.109375 50.863281 40.210938 50.839844 40.316406 C 50.808594 40.445312 50.734375 40.578125 50.675781 40.671875 C 50.582031 40.828125 50.472656 40.972656 50.351562 41.109375 C 50.175781 41.3125 49.980469 41.496094 49.78125 41.671875 L 49.480469 41.945312 C 49.511719 41.9375 49.546875 41.933594 49.582031 41.929688 C 49.652344 41.921875 49.71875 41.917969 49.785156 41.917969 C 49.820312 41.917969 49.855469 41.921875 49.894531 41.925781 C 50.082031 41.855469 50.265625 41.78125 50.453125 41.714844 C 51.929688 41.1875 53.421875 40.703125 54.886719 40.140625 C 54.914062 40.128906 54.949219 40.144531 54.957031 40.171875 C 54.96875 40.199219 54.953125 40.230469 54.925781 40.242188 C 53.394531 40.847656 51.832031 41.378906 50.285156 41.953125 C 50.289062 41.957031 50.289062 41.957031 50.292969 41.957031 C 50.539062 41.992188 50.785156 42.042969 51.027344 42.078125 C 51.664062 42.171875 52.316406 42.234375 52.964844 42.210938 C 53.390625 42.195312 53.820312 42.140625 54.234375 42.03125 C 54.433594 41.976562 54.671875 41.921875 54.886719 41.832031 C 55.027344 41.769531 55.15625 41.699219 55.257812 41.601562 C 55.28125 41.582031 55.320312 41.582031 55.339844 41.605469 C 55.363281 41.628906 55.363281 41.664062 55.339844 41.6875 C 55.230469 41.796875 55.089844 41.878906 54.933594 41.945312 C 54.714844 42.039062 54.472656 42.101562 54.269531 42.15625 C 53.84375 42.273438 53.40625 42.335938 52.96875 42.355469 C 52.3125 42.386719 51.652344 42.324219 51.003906 42.238281 C 50.761719 42.203125 50.515625 42.15625 50.269531 42.121094 C 50.144531 42.105469 50.023438 42.101562 49.898438 42.097656 C 49.890625 42.097656 49.886719 42.101562 49.878906 42.101562 C 49.796875 42.132812 49.714844 42.167969 49.632812 42.199219 C 50.605469 42.488281 51.597656 42.730469 52.5625 43.046875 C 53.238281 43.265625 53.902344 43.527344 54.535156 43.871094 C 55.042969 44.152344 55.542969 44.460938 55.980469 44.828125 C 59.125 43.738281 62.582031 42.546875 62.582031 42.546875 C 62.613281 42.535156 62.648438 42.550781 62.65625 42.582031 C 62.667969 42.613281 62.652344 42.648438 62.621094 42.660156 C 62.621094 42.660156 59.238281 43.855469 56.125 44.953125 C 56.257812 45.074219 56.386719 45.199219 56.503906 45.335938 C 56.855469 45.75 57.117188 46.230469 57.238281 46.816406 C 57.332031 47.28125 57.34375 47.761719 57.308594 48.246094 C 57.261719 48.957031 57.121094 49.671875 57.03125 50.355469 C 56.960938 50.902344 56.878906 51.445312 56.792969 51.988281 C 56.671875 52.746094 56.539062 53.503906 56.40625 54.261719 C 59.207031 53.082031 61.90625 51.945312 61.90625 51.945312 C 61.9375 51.933594 61.96875 51.945312 61.984375 51.976562 C 61.996094 52.007812 61.980469 52.042969 61.953125 52.054688 C 61.953125 52.054688 58.21875 53.660156 54.980469 55.046875 C 52.511719 56.105469 50.332031 57.039062 50.332031 57.039062 C 50.3125 57.046875 50.289062 57.046875 50.269531 57.042969 C 50.269531 57.042969 49.421875 56.8125 48.15625 56.472656 C 47.257812 56.226562 46.148438 55.925781 44.984375 55.605469 C 43.9375 55.320312 42.84375 55.019531 41.816406 54.734375 C 39.234375 54.023438 37.0625 53.421875 37.0625 53.421875 C 37.035156 53.414062 37.015625 53.386719 37.027344 53.355469 C 37.03125 53.328125 37.0625 53.3125 37.089844 53.320312 C 37.089844 53.320312 39.269531 53.894531 41.855469 54.585938 C 42.886719 54.859375 43.980469 55.152344 45.03125 55.429688 C 46.199219 55.746094 47.308594 56.042969 48.207031 56.285156 C 48.714844 56.421875 49.148438 56.539062 49.492188 56.632812 C 49.492188 56.628906 49.484375 56.628906 49.484375 56.621094 C 49.484375 56.621094 49.644531 55.3125 49.851562 53.648438 C 49.929688 53.019531 50.015625 52.34375 50.101562 51.667969 C 50.144531 51.335938 50.1875 51.003906 50.234375 50.675781 C 50.28125 50.335938 50.324219 50.003906 50.367188 49.6875 C 50.605469 48.023438 50.796875 46.71875 50.796875 46.71875 C 50.796875 46.71875 50.800781 46.71875 50.800781 46.714844 C 50.492188 46.640625 49.734375 46.449219 48.71875 46.191406 C 47.765625 45.953125 46.59375 45.652344 45.359375 45.339844 C 45.105469 45.273438 44.839844 45.207031 44.578125 45.136719 C 44.242188 45.554688 43.929688 45.988281 43.664062 46.460938 C 43.035156 47.585938 42.59375 48.839844 42.253906 50.050781 C 42.105469 50.578125 41.988281 51.113281 41.890625 51.648438 C 41.792969 52.183594 41.71875 52.726562 41.65625 53.269531 C 41.632812 53.46875 41.546875 53.796875 41.535156 54.074219 C 41.53125 54.199219 41.539062 54.308594 41.578125 54.394531 C 41.589844 54.421875 41.578125 54.457031 41.546875 54.472656 C 41.519531 54.484375 41.484375 54.472656 41.46875 54.445312 C 41.421875 54.34375 41.40625 54.214844 41.410156 54.070312 C 41.421875 53.789062 41.503906 53.457031 41.527344 53.257812 C 41.585938 52.710938 41.65625 52.164062 41.75 51.625 C 41.84375 51.082031 41.960938 50.542969 42.105469 50.011719 C 42.441406 48.78125 42.875 47.511719 43.507812 46.371094 C 43.757812 45.914062 44.054688 45.492188 44.375 45.085938 C 43.578125 44.882812 42.777344 44.675781 42.007812 44.480469 C 39.273438 43.777344 36.976562 43.183594 36.976562 43.183594 Z M 69.699219 57.859375 C 69.699219 57.859375 69.128906 58.152344 68.40625 58.53125 C 68.132812 58.671875 67.839844 58.828125 67.546875 58.984375 C 67.40625 59.058594 67.261719 59.136719 67.121094 59.214844 C 66.976562 59.292969 66.835938 59.375 66.699219 59.453125 C 66.027344 59.832031 65.511719 60.132812 65.457031 60.164062 L 65.675781 56.613281 C 65.675781 56.578125 65.652344 56.550781 65.617188 56.546875 C 65.585938 56.546875 65.558594 56.570312 65.554688 56.605469 L 65.316406 60.234375 C 64.863281 60.46875 59.960938 62.980469 55.695312 65.175781 C 52.472656 66.828125 49.613281 68.300781 49.289062 68.46875 C 48.9375 68.398438 45.871094 67.765625 42.425781 67.058594 C 37.621094 66.078125 32.074219 64.957031 32.074219 64.957031 C 32.046875 64.949219 32.019531 64.96875 32.011719 64.996094 C 32.007812 65.027344 32.027344 65.054688 32.054688 65.058594 C 32.054688 65.058594 37.59375 66.226562 42.390625 67.230469 C 46.050781 67.996094 49.28125 68.667969 49.28125 68.667969 C 49.304688 68.671875 49.328125 68.667969 49.347656 68.65625 C 49.347656 68.65625 51.222656 67.691406 53.6875 66.414062 C 53.640625 67.121094 53.4375 70.039062 53.195312 73.625 C 53.140625 74.417969 53.089844 75.246094 53.03125 76.085938 C 52.980469 76.894531 52.929688 77.722656 52.875 78.546875 C 52.769531 80.230469 52.667969 81.914062 52.574219 83.46875 C 52.324219 87.605469 52.132812 90.851562 52.132812 90.851562 C 52.128906 90.886719 52.15625 90.914062 52.1875 90.917969 C 52.21875 90.917969 52.246094 90.894531 52.25 90.859375 C 52.25 90.859375 52.46875 87.613281 52.746094 83.480469 C 52.847656 81.921875 52.960938 80.242188 53.070312 78.558594 C 53.121094 77.734375 53.175781 76.910156 53.222656 76.097656 C 53.277344 75.257812 53.328125 74.429688 53.375 73.636719 C 53.597656 69.914062 53.769531 66.914062 53.800781 66.355469 C 54.429688 66.03125 55.09375 65.6875 55.777344 65.335938 C 60.25 63.019531 65.410156 60.339844 65.410156 60.339844 C 65.433594 60.328125 65.449219 60.308594 65.449219 60.285156 L 65.449219 60.257812 C 65.464844 60.261719 65.472656 60.277344 65.488281 60.269531 C 65.488281 60.269531 66.058594 59.984375 66.78125 59.609375 C 66.921875 59.535156 67.066406 59.460938 67.214844 59.382812 C 67.355469 59.308594 67.496094 59.230469 67.640625 59.152344 C 67.929688 58.992188 68.21875 58.832031 68.488281 58.679688 C 69.199219 58.28125 69.753906 57.964844 69.753906 57.964844 C 69.78125 57.949219 69.792969 57.914062 69.777344 57.882812 C 69.761719 57.855469 69.726562 57.84375 69.699219 57.859375 Z M 36.972656 57.367188 C 33.234375 56.441406 30.09375 55.65625 30.09375 55.65625 C 30.0625 55.648438 30.046875 55.621094 30.054688 55.589844 C 30.058594 55.5625 30.089844 55.542969 30.117188 55.550781 C 30.117188 55.550781 33.265625 56.308594 37.011719 57.214844 C 38.5 57.574219 40.085938 57.960938 41.605469 58.328125 C 43.292969 58.738281 44.894531 59.128906 46.195312 59.449219 C 47.863281 59.855469 49.03125 60.144531 49.226562 60.191406 C 49.542969 60.070312 52.492188 58.921875 55.808594 57.632812 C 60.410156 55.84375 65.726562 53.785156 65.726562 53.785156 C 65.757812 53.773438 65.792969 53.789062 65.804688 53.820312 C 65.816406 53.847656 65.800781 53.882812 65.773438 53.894531 C 65.773438 53.894531 60.464844 55.984375 55.871094 57.789062 C 52.363281 59.167969 49.269531 60.382812 49.269531 60.382812 C 49.25 60.386719 49.230469 60.390625 49.210938 60.386719 C 49.210938 60.386719 47.984375 60.085938 46.152344 59.636719 C 44.851562 59.316406 43.246094 58.921875 41.5625 58.503906 C 40.042969 58.128906 38.460938 57.738281 36.972656 57.367188" fill="#bd651d"/></g></g></svg>