<svg xmlns="http://www.w3.org/2000/svg" xmlns:xlink="http://www.w3.org/1999/xlink" height="59" version="1.0" viewBox="1 2 63.3 59" width="63.3"><radialGradient cx="32.375" cy="35.569" gradientUnits="userSpaceOnUse" id="a" r="49.78" spreadMethod="reflect" xlink:actuate="onLoad" xlink:show="other" xlink:type="simple" xmlns:xlink="http://www.w3.org/1999/xlink"><stop offset="0" stop-color="#afeeff"/><stop offset=".193" stop-color="#bbf1ff"/><stop offset=".703" stop-color="#d7f8ff"/><stop offset="1" stop-color="#e1faff"/></radialGradient><path d="M60 44H45l-2.6-1h6.012c1.138 0 2.202-.721 2.497-1.821A2.508 2.508 0 0048.5 38a1.5 1.5 0 010-3h2.912c1.139 0 2.202-.721 2.497-1.821C54.355 31.516 53.096 29 51.5 29H51a2 2 0 110-4h8.412c1.139 0 2.202-.721 2.497-1.821A2.508 2.508 0 0059.5 20H59a2 2 0 110-4h2a3.008 3.008 0 002.94-3.605C63.657 10.972 62.32 10 60.869 10H50.5a1.5 1.5 0 010-3h5.912c1.139 0 2.202-.721 2.497-1.821A2.508 2.508 0 0056.5 2H10.588c-1.139 0-2.202.721-2.497 1.821A2.508 2.508 0 0010.5 7a2.5 2.5 0 110 5H7c-1.65 0-3 1.35-3 3s1.35 3 3 3h19c.352 0 .685-.073 1-.185V29h-7.412c-1.139 0-2.202 1.721-2.497 2.821A2.495 2.495 0 0017.509 34H3.5a2.5 2.5 0 100 5h1a2.5 2.5 0 110 5H4a3 3 0 100 6h5.5a2.5 2.5 0 110 5H8a3 3 0 100 6h48a3 3 0 100-6h-.5a2.5 2.5 0 110-5H60a3 3 0 100-6z" fill="url(#a)"/><linearGradient gradientUnits="userSpaceOnUse" id="b" spreadMethod="reflect" x1="32" x2="32" xlink:actuate="onLoad" xlink:show="other" xlink:type="simple" xmlns:xlink="http://www.w3.org/1999/xlink" y1="56" y2="6"><stop offset="0" stop-color="#ffce76"/><stop offset=".004" stop-color="#ffce76"/><stop offset=".605" stop-color="#ffcd92"/><stop offset="1" stop-color="#ffcca0"/><stop offset="1" stop-color="#ffcca0"/></linearGradient><path d="M57 31c0 13.805-11.195 25-25 25S7 44.805 7 31 18.195 6 32 6s25 11.195 25 25z" fill="url(#b)"/><linearGradient gradientUnits="userSpaceOnUse" id="c" spreadMethod="reflect" x1="32" x2="32" xlink:actuate="onLoad" xlink:show="other" xlink:type="simple" xmlns:xlink="http://www.w3.org/1999/xlink" y1="56" y2="6"><stop offset="0" stop-color="#ff9757"/><stop offset="1" stop-color="#ffb65b"/><stop offset="1" stop-color="#ffb65b"/></linearGradient><path d="M32 6C18.215 6 7 17.215 7 31s11.215 25 25 25 25-11.215 25-25S45.785 6 32 6zm16.169 38.383A1.99 1.99 0 0047 44a2 2 0 00-2 2c0 .438.145.839.383 1.169a21.055 21.055 0 01-3.455 2.328A1.995 1.995 0 0038 50c0 .38.112.731.295 1.033a20.859 20.859 0 01-4.306.866C33.936 50.842 33.07 50 32 50s-1.936.842-1.99 1.899a20.872 20.872 0 01-4.306-.866c.184-.302.296-.653.296-1.033a1.995 1.995 0 00-3.928-.503 21.118 21.118 0 01-3.455-2.328A1.99 1.99 0 0019 46a2 2 0 00-2-2 1.99 1.99 0 00-1.169.383 21.055 21.055 0 01-2.328-3.455A1.995 1.995 0 0013 37c-.38 0-.731.112-1.033.295a20.859 20.859 0 01-.866-4.306A1.994 1.994 0 0013 31c0-1.07-.843-1.936-1.899-1.99.14-1.485.432-2.926.866-4.306.302.184.653.296 1.033.296a1.995 1.995 0 00.503-3.928 21.118 21.118 0 012.328-3.455c.33.238.731.383 1.169.383a2 2 0 002-2 1.99 1.99 0 00-.383-1.169 21.055 21.055 0 013.455-2.328A1.995 1.995 0 0026 12c0-.38-.112-.731-.295-1.033a20.859 20.859 0 014.306-.866C30.064 11.157 30.93 12 32 12s1.936-.843 1.99-1.899c1.485.14 2.926.432 4.306.866A1.977 1.977 0 0038 12a1.995 1.995 0 003.928.503 21.118 21.118 0 013.455 2.328A1.99 1.99 0 0045 16a2 2 0 002 2 1.99 1.99 0 001.169-.383 21.055 21.055 0 012.328 3.455A1.995 1.995 0 0051 25c.38 0 .731-.112 1.033-.295.434 1.379.726 2.821.866 4.306A1.994 1.994 0 0051 31c0 1.07.843 1.936 1.899 1.99a20.872 20.872 0 01-.866 4.306A1.977 1.977 0 0051 37a1.995 1.995 0 00-.503 3.928 21.118 21.118 0 01-2.328 3.455z" fill="url(#c)"/><linearGradient gradientUnits="userSpaceOnUse" id="d" spreadMethod="reflect" x1="31.779" x2="32.62" xlink:actuate="onLoad" xlink:show="other" xlink:type="simple" xmlns:xlink="http://www.w3.org/1999/xlink" y1="27.919" y2="17.142"><stop offset="0" stop-color="#ff9757"/><stop offset="1" stop-color="#ffb65b"/><stop offset="1" stop-color="#ffb65b"/></linearGradient><path d="M32.755 22.073l-3.325.998A2.006 2.006 0 0030.007 27H31v11a2 2 0 104 0V23.74A1.74 1.74 0 0033.26 22h-.005c-.169 0-.337.025-.5.073z" fill="url(#d)"/></svg>