<svg viewBox="0 0 48 48" xmlns="http://www.w3.org/2000/svg"><path d="M29.4 48a17.48 17.48 0 01-5.9-1.16 37.64 37.64 0 01-13.82-9.57A37.63 37.63 0 01.85 23c-1.58-5.21-1-9.49 1.75-12.06L7 6.79a6 6 0 018.44.21l4.13 4.35a6 6 0 01-.23 8.48L17 22.08l8.26 8.71 2.35-2.24a6 6 0 018.49.22l4.13 4.35a6 6 0 01-.23 8.5l-4.35 4.13A8.78 8.78 0 0129.4 48zM11.08 9.14a2 2 0 00-1.37.55l-4.35 4.13c-1.53 1.45-1.78 4.37-.67 8a33.61 33.61 0 007.9 12.71 33.61 33.61 0 0012.27 8.57c3.56 1.29 6.49 1.2 8-.25l4.35-4.13a2 2 0 00.07-2.83l-4.13-4.35a2 2 0 00-2.83-.08l-3.8 3.62a1.93 1.93 0 01-1.43.55 2 2 0 01-1.4-.62l-11-11.62a2 2 0 01.08-2.83l3.81-3.61a2 2 0 00.08-2.83l-4.12-4.36a2 2 0 00-1.4-.62h-.06z" fill="#2161ff"/><rect fill="#a6c7ff" height="16" rx="1" ry="1" transform="rotate(-90 35 13)" width="6" x="32" y="5"/><rect fill="#a6c7ff" height="16" rx="1" ry="1" transform="rotate(-180 35 13)" width="6" x="32" y="5"/><path fill="none" d="M0 0h48v48H0z"/></svg>