<svg xmlns="http://www.w3.org/2000/svg" height="496.1" version="1.0" viewBox="1.2 8 509.7 496.1" width="509.7"><g clip-rule="evenodd" fill-rule="evenodd"><path d="M290.845 110a149.368 149.368 0 0143.733 18.13l28.418-12.621 33.494 33.493-12.617 28.409a149.382 149.382 0 0118.134 43.745L431 232.317v47.365l-29 11.163a149.37 149.37 0 01-18.131 43.733l12.621 28.418-33.492 33.494-28.409-12.617a149.353 149.353 0 01-43.745 18.133L279.684 431h-47.367l-11.163-29a149.357 149.357 0 01-43.733-18.13l-28.418 12.621-33.494-33.492 12.617-28.409a149.39 149.39 0 01-18.133-43.745L81 279.683v-47.366l28.997-11.162a149.342 149.342 0 0118.132-43.737l-12.62-28.415 33.493-33.495 28.418 12.622A149.374 149.374 0 01221.154 110l11.163-29h47.366l11.162 29z" fill="#ffe177" id="change1_1"/><path d="M177.421 383.869l-28.418 12.621-4.398-4.398 26.633-11.829a149.894 149.894 0 006.183 3.606zM290.845 110a149.34 149.34 0 0143.185 17.794c.178.119.36.232.548.336l-8.118 3.606c-13.524-8.327-34.465-18.059-49.916-21.736l-11.162-29h14.301l11.162 29zm-146.241 9.907l4.399-4.398 28.418 12.622a151.039 151.039 0 00-6.183 3.606l-26.634-11.83zm208.489.001l9.903-4.398 33.494 33.493-12.617 28.409a149.382 149.382 0 0118.134 43.745L431 232.317v47.365l-29 11.163a149.37 149.37 0 01-18.131 43.733l12.621 28.418-33.492 33.494-9.903-4.398 29.095-29.096-12.621-28.418a149.344 149.344 0 0018.131-43.733l29-11.163v-47.365l-28.993-11.16a149.382 149.382 0 00-18.134-43.745l12.617-28.409-29.097-29.095zm-19.058 264.304a149.384 149.384 0 01-43.192 17.795L279.684 431h-14.301l11.159-28.994c15.454-3.678 36.399-13.409 49.926-21.739l8.119 3.606a7.793 7.793 0 00-.552.339z" fill="#ffd064" id="change2_1"/><circle cx="255.999" cy="256" fill="#eceff1" r="89.83" id="change3_1"/><path d="M255.999 166.17c2.123 0 4.227.079 6.313.224-46.664 3.24-83.517 42.118-83.517 89.606 0 47.488 36.852 86.365 83.517 89.606-2.086.145-4.19.224-6.313.224-49.611 0-89.83-40.22-89.83-89.83 0-49.611 40.219-89.83 89.83-89.83z" fill="#d1d1d6" id="change4_1"/><path d="M244.202 263.924l43.68-44.115c5.17-5.222 13.605-5.237 18.812-.058 5.206 5.177 5.222 13.589.058 18.801-17.712 17.876-35.305 35.871-53.1 53.666-5.202 5.202-13.64 5.202-18.842 0l-29.522-29.522c-5.202-5.202-5.202-13.64 0-18.842 5.202-5.202 13.641-5.202 18.843 0l20.071 20.07z" fill="#8ac9fe" id="change5_1"/><path d="M256.663 488.011a7.97 7.97 0 010 15.938c-25.866.093-51.857-3.842-76.972-11.966-24.297-7.86-47.755-19.608-69.466-35.388l-.01-.007c-55.379-40.253-89.204-99.15-99.122-161.834-9.919-62.692 4.068-129.155 44.313-184.528l.004-.006c14.934-20.547 32.475-38.145 51.854-52.674a247.169 247.169 0 0148.654-28.449l-18.253-4.576a7.988 7.988 0 113.875-15.499l42.944 10.767a7.988 7.988 0 014.943 11.81l-20.564 38.77a7.983 7.983 0 01-14.125-7.437l10.945-20.635c-17.237 7.256-33.666 16.611-48.856 28-17.962 13.466-34.276 29.827-48.243 48.976a7.801 7.801 0 01-.462.637c-37.505 51.778-50.537 113.83-41.279 172.345 9.259 58.519 40.805 113.516 92.449 151.177.22.144.434.3.642.468 20.281 14.687 42.1 25.607 64.632 32.896a231.582 231.582 0 0072.097 11.215zm117.672-.532l-18.27-4.581a246.473 246.473 0 0049.35-28.929c19.086-14.411 36.393-31.849 51.18-52.194 40.244-55.373 54.232-121.837 44.313-184.529-9.918-62.687-43.747-121.588-99.132-161.841-21.712-15.78-45.171-27.53-69.471-35.39C307.19 11.892 281.2 7.957 255.337 8.052a7.97 7.97 0 000 15.938 231.414 231.414 0 0172.093 11.214c22.658 7.329 44.594 18.331 64.971 33.14 51.827 37.667 83.479 92.769 92.756 151.404 9.276 58.631-3.824 120.815-41.5 172.654-13.834 19.034-30.02 35.343-47.867 48.819a230.805 230.805 0 01-49.487 28.51l10.959-20.661a7.98 7.98 0 00-3.344-10.781 7.98 7.98 0 00-10.781 3.344l-20.564 38.77a7.987 7.987 0 004.943 11.81l42.944 10.768a7.987 7.987 0 009.687-5.812 7.99 7.99 0 00-5.812-9.69z" fill="#a79ba7" id="change6_1"/></g></svg>