<svg xmlns="http://www.w3.org/2000/svg" height="200" version="1.0" width="200"><circle cx="100" cy="100" fill="#ffd200" r="98.1" id="change1_1"/><circle cx="100" cy="100" fill="#ffb400" r="72.2" id="change2_1"/><g fill="inherit" id="change3_1"><path d="M100 174c-40.8 0-74-33.2-74-74s33.2-74 74-74 74 33.2 74 74-33.2 74-74 74zm0-144.3c-38.7 0-70.3 31.5-70.3 70.3s31.5 70.3 70.3 70.3 70.3-31.5 70.3-70.3c0-38.7-31.6-70.3-70.3-70.3z"/><path d="M100 200C44.9 200 0 155.1 0 100S44.9 0 100 0s100 44.9 100 100-44.9 100-100 100zm0-196.3C46.9 3.7 3.7 46.9 3.7 100s43.2 96.3 96.3 96.3 96.3-43.2 96.3-96.3S153.1 3.7 100 3.7z"/><path d="M97.7 192.9c-1.3 0-2.4-1.1-2.3-2.5l.6-11.8c.1-1.2 1-2.1 2.2-2.1 1.2 0 2.2 1 2.1 2.2l-.2 11.8c0 1.4-1.1 2.5-2.4 2.4zm17.9-3.6l-2.1-11.9c-.2-1.1.5-2.1 1.6-2.3 1.1-.2 2.1.4 2.3 1.5l2.7 11.7c.3 1.3-.5 2.5-1.8 2.8h-.1c-1.2.3-2.4-.5-2.6-1.8zm-38.5.8c-1.3-.3-2.1-1.7-1.7-2.9l3.2-11.6c.3-1 1.4-1.6 2.4-1.4 1.1.3 1.7 1.3 1.5 2.4L80 188.3c-.3 1.3-1.6 2.1-2.9 1.8zm58-6.5l-4.7-11.1c-.4-1 0-2.1 1-2.6 1-.4 2.2 0 2.6.9l5.2 10.8c.6 1.2.1 2.6-1.1 3.1h-.1c-1.1.6-2.4.1-2.9-1.1zm-77.5-.9c-1.2-.6-1.6-2.1-1-3.2l5.8-10.6c.5-1 1.7-1.3 2.7-.8 1 .5 1.4 1.7.9 2.6l-5.2 10.8c-.6 1.3-2 1.8-3.2 1.2zm95.1-9l-7-9.8c-.6-.9-.4-2.1.4-2.7.9-.7 2.1-.5 2.8.3l7.5 9.4c.8 1 .6 2.5-.4 3.3l-.1.1c-.9.7-2.4.4-3.2-.6zm-112.4-2.5c-1-.9-1.1-2.4-.3-3.4l8-9c.7-.8 2-.9 2.8-.2.8.7 1 1.9.3 2.8l-7.5 9.4c-.8 1.1-2.3 1.3-3.3.4zM167.8 160l-9-8c-.8-.7-.9-1.9-.2-2.8.7-.8 1.9-1 2.8-.3l9.4 7.5c1 .8 1.2 2.3.3 3.3l-.1.1c-.7 1-2.2 1.1-3.2.2zM26 156.2s-.1 0 0 0c-.8-1.1-.6-2.6.5-3.3l9.8-7c.9-.6 2.1-.4 2.8.4.7.9.5 2.1-.3 2.8l-9.4 7.5c-1.1.8-2.6.6-3.4-.4zm153.5-12.7l-10.6-5.8c-1-.5-1.3-1.7-.8-2.7v-.1c.5-1 1.7-1.4 2.6-.9l10.8 5.2c1.2.6 1.7 2 1.1 3.1v.1c-.5 1.3-2 1.7-3.1 1.1zm-164.2-5.2c-.6-1.2 0-2.6 1.2-3.1l11.1-4.7c1-.4 2.1 0 2.6 1 .4 1 0 2.2-.9 2.6l-10.8 5.2c-1.2.7-2.6.2-3.2-1zm171.9-13.6l-11.6-3.3c-1-.3-1.6-1.4-1.4-2.4v-.1c.3-1.1 1.3-1.7 2.4-1.5l11.7 2.7c1.3.3 2.1 1.6 1.8 2.8-.4 1.4-1.7 2.1-2.9 1.8zM8.9 118.6v-.2c-.3-1.3.6-2.5 1.9-2.7l12-2.1c1-.2 2 .5 2.2 1.5v.2c.2 1-.4 2-1.4 2.3l-11.8 2.7c-1.4.3-2.6-.5-2.9-1.7zm181.5-13.9l-11.8-.6c-1.2-.1-2.1-1-2.1-2.2v-.1c0-1.2 1-2.1 2.2-2.1h11.8c1.3 0 2.4 1.1 2.3 2.4v.4c.1 1.2-1.1 2.2-2.4 2.2zM7.1 97.8c0-1.4 1.1-2.4 2.4-2.3l12.1.6c1 .1 1.8.9 1.8 2 0 1-.9 1.9-1.9 1.9l-12.1.1c-1.3.1-2.3-1-2.3-2.3zM175 84.6c-.2-1.1.4-2.2 1.5-2.4l11.7-2.7c1.3-.3 2.6.5 2.8 1.8v.1c.3 1.3-.6 2.5-1.9 2.8l-11.8 2.1c-1 .1-2.1-.6-2.3-1.7zM23.4 82.7L11.6 80c-1.2-.3-2-1.5-1.7-2.8V77c.3-1.2 1.6-2 2.8-1.6l11.7 3.3c1 .3 1.6 1.3 1.3 2.3v.2c-.2 1.1-1.2 1.7-2.3 1.5zm146.3-14.4c-.5-1-.1-2.2.9-2.7l10.8-5.3c1.2-.6 2.6-.1 3.1 1.1.5 1.2 0 2.6-1.2 3.1l-11.1 4.7c-.9.6-2 .1-2.5-.9zM29.1 66.1l-10.8-5.2c-1.2-.6-1.7-2-1.1-3.2v-.1c.6-1.2 2.1-1.6 3.2-1L31 62.5c1 .5 1.3 1.7.8 2.7-.5.9-1.7 1.4-2.7.9zm131.8-12.5c-.7-.9-.6-2.1.3-2.8l9.4-7.5c1-.8 2.5-.7 3.3.4.8 1 .6 2.5-.5 3.3l-9.7 7c-.9.7-2.1.5-2.8-.4zM38.5 51.2l-9.4-7.5c-1-.8-1.2-2.3-.4-3.3.8-1 2.4-1.1 3.3-.2l9 8c.8.7.9 2 .2 2.8-.7.8-1.9.9-2.7.2zm110.6-10c-.9-.7-1-1.9-.3-2.8l7.5-9.4c.8-1 2.3-1.2 3.3-.4 1 .8 1.1 2.4.2 3.3l-7.9 9c-.7.9-2 1-2.8.3zm-98.2-2.4l-7.5-9.4c-.8-1-.7-2.5.4-3.3 1-.8 2.5-.5 3.3.5l7 9.7c.6.9.4 2.1-.4 2.8-.9.6-2.1.5-2.8-.3zm83.9-7s0-.1 0 0c-1-.5-1.4-1.7-.9-2.7l5.2-10.8c.6-1.2 2-1.7 3.2-1.1 1.2.6 1.6 2.1 1 3.2l-5.7 10.5c-.7 1-1.8 1.4-2.8.9zm-69.1-2.5l-5.3-10.8c-.6-1.2-.1-2.6 1.1-3.2 1.2-.5 2.6 0 3.1 1.2l4.7 11.1c.4 1 0 2.1-1 2.6-.9.5-2.1.1-2.6-.9zm53-3.6c-1.1-.3-1.8-1.3-1.5-2.4l2.6-11.7c.3-1.3 1.6-2.1 2.8-1.8 1.3.3 2 1.6 1.7 2.9l-3.2 11.6c-.2 1.1-1.3 1.7-2.4 1.4zm-36.4-2.2l-2.7-11.7c-.3-1.3.5-2.6 1.8-2.8 1.3-.3 2.5.6 2.8 1.9l2.1 11.8c.2 1.1-.5 2.1-1.6 2.3-1.1.2-2.2-.5-2.4-1.5zm19.5 0c-.1 0-.1 0 0 0-1.2 0-2-.9-2-2v-12c0-1.3 1.1-2.3 2.3-2.3h.1c1.3 0 2.3 1.1 2.3 2.4l-.6 12c-.1 1-1 1.9-2.1 1.9z"/></g><path d="M120.1 135.7c-17.4 9.7-42.4.7-44.8-21.2H69v-9.9h5c-.2-2.7-.1-3.6.1-7.3H69v-9.7h6.6c3.4-20.8 26.8-31 44.6-22.4v13.5c-10.1-8.6-26.3-4.6-29.4 8.9h22.1v9.7H89.1c-.2 3.6-.3 4.3-.1 7.3h23.8v9.9H90.6c3.7 15 18.8 16.1 29.5 8.4v12.8z" fill="#fff8a0" id="change4_1"/></svg>