<svg xmlns="http://www.w3.org/2000/svg" height="206.1" version="1.0" width="431.1"><path d="M391.2 206.1H51.1c-22 0-39.9-18-39.9-39.9V46.4c0-22 18-39.9 39.9-39.9h340.1c22 0 39.9 18 39.9 39.9v119.8c0 21.9-17.9 39.9-39.9 39.9z" fill="#F09A53" id="change1_1"/><path d="M379.3 0H39C17.5 0 0 17.5 0 39v113.2c0 21.4 17.5 39 39 39h340.3c21.4 0 39-17.5 39-39V39c0-21.5-17.5-39-39-39zM79.1 25.8c30.5 0 55.2 24.7 55.2 55.2s-24.7 55.2-55.2 55.2S23.9 111.5 23.9 81s24.7-55.2 55.2-55.2zM42.9 154.1l-4.7 4.1 1.6 6.3c.1.6-.5 1-1 .7l-5.3-3.4-5.3 3.4c-.5.3-1.1-.1-1-.7l1.6-6.3-4.7-4.1c-.5-.4-.2-1.1.4-1.2l6.3-.3 2.2-6c.2-.6 1-.6 1.2 0l2.5 6 5.9.3c.5.1.7.8.3 1.2zm22.8 0l-4.7 4.1 1.6 6.3c.1.6-.5 1-1 .7l-5.3-3.4-5.3 3.4c-.5.3-1.1-.1-1-.7l1.6-6.3-4.7-4.1c-.5-.4-.2-1.1.4-1.2l6.3-.3 2.2-6c.2-.6 1-.6 1.2 0l2.5 6 5.9.3c.5.1.8.8.3 1.2zm22.9 0l-4.7 4.1 1.6 6.3c.1.6-.5 1-1 .7l-5.3-3.4-5.3 3.4c-.5.3-1.1-.1-1-.7l1.6-6.3-4.7-4.1c-.5-.4-.2-1.1.4-1.2l6.3-.3 2.2-6c.2-.6 1-.6 1.2 0l2.5 6 5.9.3c.5.1.7.8.3 1.2zm22.8 0l-4.7 4.1 1.6 6.3c.1.6-.5 1-1 .7l-5.3-3.4-5.3 3.4c-.5.3-1.1-.1-1-.7l1.6-6.3-4.7-4.1c-.5-.4-.2-1.1.4-1.2l6.3-.3 2.2-6c.2-.6 1-.6 1.2 0l2.5 6 5.9.3c.5.1.7.8.3 1.2zm22.8 0l-4.7 4.1 1.6 6.3c.1.6-.5 1-1 .7l-5.3-3.4-5.3 3.4c-.5.3-1.1-.1-1-.7l1.6-6.3-4.7-4.1c-.5-.4-.2-1.1.4-1.2l6.3-.3 2.2-6c.2-.6 1-.6 1.2 0l2.5 6 5.9.3c.5.1.8.8.3 1.2zm31.5 20.8h-2V20h2v154.9z" fill="#F4D4AE" id="change2_1"/></svg>