<svg xmlns="http://www.w3.org/2000/svg" height="1091.5" version="1.0" width="1175"><defs><clipPath id="a"><path d="M116 0h1059.04v923H116zm0 0"/></clipPath><clipPath id="b"><path d="M0 49h1041v1042.52H0zm0 0"/></clipPath></defs><g clip-path="url(#a)" id="change1_2"><path d="M1169.371 13.86c-16.762-4.348-33.531-8.688-50.293-13.032-1.297-.726-2.906-1.039-4.77-.68-.859.09-1.648.32-2.347.672-3.262 1.051-6.48 2.22-9.68 3.41-10.93 4.051-21.68 8.5-32.281 13.22-15.941 7.109-31.55 14.85-46.871 23.05-20.59 11.02-40.637 22.898-60.152 35.46-24.38 15.688-47.957 32.446-70.704 50.083-26.535 20.574-51.93 42.383-76.164 65.223-27.925 26.316-54.312 54.004-79.156 82.8a1206.516 1206.516 0 00-78.82 101.907c-27.43 39.672-52.406 80.765-75.067 122.894-25.515 47.445-48.132 96.211-68.109 145.84a1548.496 1548.496 0 00-11.355 29.074c-12.891-10.054-25.786-20.105-38.676-30.16-33.797-26.351-67.594-52.707-101.39-79.062l-93.177-72.657c-7.894-6.156-15.789-12.308-23.683-18.464-2.016-1.575-3.781-3.086-6.285-4.028-7.828-2.95-15.934-6.777-24.082-8.844-3.094-.785-6.989.286-10.118.766-5.453.84-10.902 1.676-16.351 2.512-3.434.527-8.078.504-10.95 2.535-1.577 1.117-2.32 2.55-3.257 4.086-8.711 14.254-17.422 28.504-26.133 42.754a312034.92 312034.92 0 01-29.129 47.652c-2.266 3.711-4.86 6.797-4.066 11.277.918 5.204 2.035 10.387 3.054 15.579 3.891 19.843 7.786 39.691 11.676 59.539 1.2 6.113 2.137 12.332 3.61 18.398.863 3.555 3.5 5.406 7.015 6.707a1031.96 1031.96 0 019.192 3.426c1.085.414 2.171.828 3.257 1.246.594.227 1.188.453 1.782.684.308.117.617.238.925.355.051.02.086.031.125.047 3.075 1.195 6.149 2.402 9.215 3.617 17.418 6.906 34.688 14.137 51.824 21.621 51.438 22.473 101.747 47.235 150.258 74.66 57.098 32.274 112.13 68.301 160.965 110.614 11.707 10.14 23.02 20.668 33.86 31.593 3.753 3.786 11.535 1.965 12.734-3.086 1.512-6.39 3.226-12.746 4.95-19.093 4.792-17.649 10-35.207 15.476-52.684 8.347-26.637 17.351-53.098 26.937-79.375a1909.607 1909.607 0 0139.336-99.168c16.156-37.621 33.594-74.777 52.399-111.351 20.636-40.149 42.918-79.598 67.058-118.07 25.16-40.094 52.348-79.137 81.895-116.634 30.062-38.14 62.656-74.636 98.047-108.726 35.449-34.145 73.726-65.961 115.066-94.012 20.879-14.164 42.5-27.406 64.84-39.555 5.129-2.78 12.82-5.261 15.25-10.468.82-1.774 1.41-3.66 2.11-5.473 3.21-8.258 6.41-16.527 9.609-24.8 1.98-5.098 3.949-10.188 5.921-15.278 1.387-3.582-1.582-7.64-5.32-8.602" fill="#299740"/></g><g clip-path="url(#b)" id="change1_1"><path d="M939.3 261.43c-20.921 22.308-41.292 46.011-60.87 70.86-.555.702-1.106 1.413-1.66 2.116 44.937 67.735 71.144 148.946 71.144 236.172 0 236-191.793 427.996-427.535 427.996-235.742 0-427.535-191.996-427.535-427.996 0-235.996 191.793-427.992 427.535-427.992 89.894 0 173.394 27.918 242.308 75.55a1113.664 1113.664 0 0140.692-40.406 1083.552 1083.552 0 0127.656-25.164c-33.324-24.882-69.476-45.625-108.086-61.964-64.183-27.18-132.34-40.961-202.57-40.961-70.23 0-138.383 13.78-202.57 40.96-61.97 26.235-117.618 63.79-165.395 111.618-47.773 47.828-85.289 103.535-111.5 165.57C13.766 432.043 0 500.273 0 570.58c0 70.308 13.766 138.534 40.914 202.788 26.207 62.035 63.723 117.742 111.5 165.574 47.774 47.825 103.422 85.38 165.395 111.618 64.187 27.18 132.343 40.96 202.57 40.96 70.23 0 138.383-13.78 202.57-40.96 61.973-26.239 117.621-63.793 165.395-111.618 47.777-47.832 85.293-103.539 111.504-165.574 27.14-64.254 40.914-132.48 40.914-202.789 0-70.305-13.774-138.531-40.914-202.789-16.032-37.941-36.301-73.508-60.547-106.36" fill="#299740"/></g></svg>