<svg xmlns="http://www.w3.org/2000/svg" height="94.5" version="1.0" viewBox="-0.1 -0.7 69.9 94.5" width="69.9"><defs><clipPath id="a"><path d="M2 83h26v10.871H2zm0 0"/></clipPath><clipPath id="b"><path d="M2 43h25v50.871H2zm0 0"/></clipPath><clipPath id="c"><path d="M29 39h40.84v52H29zm0 0"/></clipPath><clipPath id="d"><path d="M30 39h39.84v52H30zm0 0"/></clipPath></defs><path d="M9.742 4.926c.063-.356.024-1.254.102-1.324.207-.176 1.996.347 2.402.285 3.09-.489 4.738 1.297 4.738 1.297s-.203 1.183-.414 2.386c-.254 1.442-1.726 3.52-1.91 3.61l.008 2.18.473.417s-1.168 1.094-2.457.84c-1.114-.219-2.801-1.504-2.801-1.504l.531-.383c.414-.296.266-2.43.152-3.59a5.114 5.114 0 01-.441-1.109c-.887-.453-1.145-1.476-.996-2.426.086-.527.336-.726.613-.68" fill="#bd651d" fill-rule="evenodd" id="change1_1"/><g clip-path="url(#a)" id="change2_2"><path d="M26.86 88.863c-.669-.574-1.536-1.113-2.317-1.523-.645-.336-1.32-.586-1.855-1.098-.395-.375-.754-.785-.899-1.32-.031-.113-.078-.961-.176-.992-.324-.098-.957.222-1.258.308-.957.278-1.96.668-2.964.735l-.434-.043c.137-.043.074 1.07.059 1.21-.09.891-.391 1.743-.512 2.63-.02.136-.07.785.082.91.148.12.437.164.617.21.406.114.95.368 1.379.32.39-.038.766-.612 1.184-.444.554.218.797 1.109 1.297 1.421.417.262.894.434 1.355.594 1.422.496 3.703 1.262 4.797-.3.555-.79.355-2.008-.356-2.618zM13.065 92.97c.07.351-.3.86-.597.886-1.371.125-3.899-.628-4.528-1.152-.46-.387-.574-.828-1.175-.984-.434-.114-.91.203-1.301.289-.578.125-1.352-.348-1.871-.555-.192-.074-.477-.16-.602-.336-.11-.16.215-.695.258-.86.223-.835.281-1.714.465-2.562.074-.36.555-2.398.637-2.46.043-.028.27.05.312.058.32.062.649.117.973.144.289.024.578.051.87.07.372.028.743.028 1.114.028.074 0 .32-.031.387.028.062.058.062.378.082.457.101.378.242.777.484 1.09.34.433 2.364 2.566 3.145 3.054 1.535.957 1.222 2.191 1.347 2.805" fill="#d13123" fill-rule="evenodd"/></g><g clip-path="url(#b)" id="change3_3"><path d="M22.21 85.82c-.093.172-.175.348-.288.5a.992.992 0 01.195-.14c.137-.075.29-.13.438-.192.14-.058.273-.125.37-.222a.588.588 0 00.165-.266.296.296 0 00-.043-.266.177.177 0 00-.184-.078c-.125.02-.254.125-.34.211-.14.14-.234.297-.312.453zm-.448.407a.135.135 0 00-.035-.032c-.07-.05-.176-.074-.235-.09a1.602 1.602 0 00-.742.04c-.145.05-.254.136-.2.293.04.113.153.156.282.171a1.16 1.16 0 00.586-.101.96.96 0 00.344-.281zm.281-.497a1.94 1.94 0 01.344-.5c.113-.113.285-.242.449-.265a.364.364 0 01.367.156.464.464 0 01.086.344.756.756 0 01-.234.433 1.13 1.13 0 01-.34.22c-.168.073-.356.132-.512.218-.027.012-.039.035-.062.05.011.016.02.032.035.04l.422.222c.058.028.12.059.18.086.179.086.355.141.523.172.187.031.363.028.527-.02.313-.085.574-.327.746-.738.012-.03.043-.046.074-.03.032.01.047.042.036.073-.168.473-.454.754-.801.868a1.253 1.253 0 01-.617.035 1.908 1.908 0 01-.567-.203 4.719 4.719 0 01-.238-.137c-.117-.07-.23-.149-.348-.219a.194.194 0 01-.058-.066l-.004-.004c-.04.031-.09.055-.117.097-.383.618-.403 1.348-.641 2.012-.098.29-.238.563-.457.817a.061.061 0 01-.086.004.06.06 0 01-.008-.082c.207-.243.332-.508.422-.782.23-.68.242-1.422.625-2.054.008-.012.012-.02.02-.028a1.268 1.268 0 01-.313.219 1.37 1.37 0 01-.687.102c-.192-.024-.348-.114-.403-.286-.062-.199.016-.332.168-.418.266-.148.781-.125.95-.078.081.024.23.07.304.145.078-.125.145-.266.215-.403zM6.59 88.207a.543.543 0 00.203.129c.137.05.297.059.445.035a1.01 1.01 0 00.418-.172c.133-.101.23-.222.313-.351l.011-.016a2.08 2.08 0 00-.324-.07c-.183-.024-.492-.04-.746.027-.16.043-.3.113-.363.246-.027.067 0 .125.043.172zM8.09 88a.3.3 0 01.07-.04c-.004 0-.012 0-.015-.003-.004 0-.012-.004-.02-.012v.004A.563.563 0 008.09 88zm.09-.14c.004.003.008.003.008 0 .003 0 0 0 0 0-.004 0-.004-.005-.008-.005zm.008-.016c.019.004.035.023.039.043a.073.073 0 01-.02.062c.11-.023.277-.027.328-.043.215-.078.63-.297.844-.562.078-.102.129-.211.113-.324a.384.384 0 00-.105-.2c-.09-.093-.207-.101-.325-.07a.778.778 0 00-.335.207c-.25.258-.364.59-.54.887zm-1.454.644a.666.666 0 01-.3-.23.275.275 0 01-.024-.285c.082-.172.258-.27.469-.317.273-.066.601-.043.797-.011.058.007.12.02.183.035.059.015.121.03.18.054.172-.308.293-.644.547-.91a.954.954 0 01.531-.281.47.47 0 01.41.148c.118.13.16.262.157.391a.677.677 0 01-.16.375c-.239.293-.696.527-.93.61-.031.011-.106.019-.184.027s-.164.011-.21.035h-.005c-.004.008-.004.016-.008.023.2.075.399.149.59.215a4.657 4.657 0 00.68.196c.14.023.277.042.414.039.348 0 .7-.102 1.066-.387a.066.066 0 01.086.008.062.062 0 01-.011.086c-.383.328-.758.464-1.137.48-.152.004-.3-.008-.453-.039a2.412 2.412 0 01-.29-.074 4.084 4.084 0 01-.413-.156 14.574 14.574 0 01-.567-.266c-.02.055-.047.101-.058.156-.035.168-.047.348-.078.5-.079.387-.16.918-.317 1.395-.11.332-.258.636-.469.843a.057.057 0 01-.082 0 .057.057 0 010-.082c.192-.199.325-.488.426-.804.145-.469.219-1 .29-1.383.03-.176.042-.395.093-.586a.783.783 0 01.078-.215 1.34 1.34 0 01-.273.262c-.14.101-.313.172-.496.2a1.03 1.03 0 01-.532-.052zm20.04 3.457a2.53 2.53 0 01-.692.035c-.355-.027-.719-.105-1.043-.171a31.23 31.23 0 01-1.453-.332c-.203-.055-.41-.114-.613-.176a9.383 9.383 0 01-1.317-.496c-.125-.059-.25-.121-.37-.18-.184-.094-.364-.191-.548-.29-.093-.046-.222-.093-.328-.155a.446.446 0 01-.117-.082.054.054 0 00-.074 0 .056.056 0 00-.004.078c.039.035.086.07.137.101.105.067.234.118.324.172.18.106.36.207.539.309.12.066.242.133.367.195.43.215.879.39 1.336.535.203.063.414.117.621.172.484.121.98.219 1.469.309.332.058.703.129 1.066.148.25.012.496 0 .727-.058.031-.004.05-.04.043-.07a.058.058 0 00-.07-.044zm-8.028-2.351c-.25-.102-.492-.215-.742-.32-.164-.07-.332-.133-.508-.2a6.03 6.03 0 00-.375-.12 2.78 2.78 0 00-.258-.071 1.617 1.617 0 00-.293-.04.091.091 0 00-.054.016.056.056 0 00-.024.047c0 .008.004.02.012.031.016.028.047.032.074.02l.004-.004c.066.008.227.055.246.063.082.027.16.054.242.086.121.046.242.097.364.144.144.059.285.121.425.176.22.09.434.172.653.25.238.09.484.168.742.234.031.008.066-.008.074-.039.008-.031-.008-.066-.043-.074a10.971 10.971 0 01-.539-.2zm-6.203 3.617a2.77 2.77 0 01-.754.094c-.535.011-1.012-.106-1.469-.282a9.904 9.904 0 01-1.03-.488c-.34-.176-.677-.36-1.036-.527a5.299 5.299 0 00-.555-.223 4.045 4.045 0 00-.578-.148c-.035-.004-.289-.008-.39-.028-.004-.004-.008-.004-.012-.004.004.004.004.012.008.012-.004-.004-.004-.008-.008-.012-.004 0-.008 0-.004-.003a.06.06 0 00-.063-.004c-.023.011-.035.047-.02.07.005.012.016.023.04.035a.249.249 0 00.082.02c.113.023.312.03.344.039.187.039.375.097.554.164.18.066.356.148.532.234.347.176.68.367 1.015.543.348.188.696.36 1.055.492.476.18.98.285 1.543.266.25-.012.535-.04.789-.125a1.2 1.2 0 00.465-.277c.023-.024.027-.063.004-.086a.061.061 0 00-.086 0 1.092 1.092 0 01-.426.238zm-5.824-1.606c0-.003-.004-.007-.004-.003zM3.46 89.97c.004-.004.004-.008 0-.008zm1.805 1.136c-.204-.113-.399-.242-.59-.367-.082-.05-.16-.101-.239-.152a13.292 13.292 0 00-.359-.227 10.265 10.265 0 01-.344-.195 1.568 1.568 0 01-.25-.176.107.107 0 00-.023-.02c0 .005-.004.009-.004.012 0-.003.004-.007.004-.011-.004-.004-.004-.004 0-.008 0-.023-.012-.043-.031-.05-.032-.013-.063.003-.07.026-.012.024-.008.047.003.079.016.03.051.07.098.113.164.144.48.344.523.375.114.078.23.16.348.242l.238.156c.2.125.407.25.617.356.293.148.598.265.903.32a.058.058 0 00.07-.043.057.057 0 00-.047-.07 3.39 3.39 0 01-.847-.36zm13.566-5.535c-1.078.082-3.152-.777-3.152-.777l-2.602-31.145-4.32 31.98s-2.293 1.017-3.254.97c-.938-.043-2.524-1.239-2.524-1.239l1.07-41.355 16.415-.649s2.004 15.47 1.574 20.477c-.68 7.906.324 20.45.324 20.45s-2.418 1.202-3.531 1.288" fill="#3b435f" fill-rule="evenodd"/></g><path d="M3.738 42.621s1.407-13.973 1.582-16.41c-.144-.004-.738.02-.949-.012-.984-.137-4 2.254-4.207 1.07-.277-1.554-.262-4.37.508-7.257.496-1.875 2.062-2.953 3.48-4.016 1.543-1.156 5.774-2.914 5.774-2.914s2.304 1.375 3.37 1.45c1.067.073 1.845-.829 1.845-.829s5.336.969 7.16 2.762c1.98 1.95 4.824 7.207 4.73 8.93-.09 1.652-4.898 1.414-4.898 1.414l-2.13 9.421.505 6.403s-8.328 6.324-16.77-.012" fill="#fce8bc" fill-rule="evenodd" id="change4_1"/><path d="M15.094 13.809c-.121-.727 5.219.851 5.297 1.336.816 4.925.933 19.257.343 28.085l-4.933 2.188s-.184-28.441-.707-31.61zM3.789 16.352c.215-.641 5.563-3.977 6.11-3.29.785.981 2.3 9.036 2.14 14.758-.133 4.72-.828 14.149-1.133 18.262l-8.402-2.285c2.152-5.535 3.137-11.95 2.836-17.215-.297-5.195-1.867-9.277-1.55-10.23" fill="#d13123" fill-rule="evenodd" id="change2_1"/><path d="M.805 27.156c.308-1.484 3.695-1.879 4.511-1.039l.399 6.074c.969-1.593 5.57-3.472 5.57-3.472s.832-1.426 1.207-1.946c.938-1.308 2.453-1.55 2.453-1.55s.032 3.761-1.215 5.328c-1.25 1.566-6.968 7.762-9.12 7.195C2.456 37.18.804 27.156.804 27.156" fill="#bd651d" fill-rule="evenodd" id="change1_2"/><path d="M19.883 21.32c.101 0 .183.09.183.196a.188.188 0 01-.183.191c-.102 0-.18-.086-.18-.191 0-.106.078-.196.18-.196zm1.605 1.188s-3.683.152-3.672.105c.051-.195.07-.636.207-.8.196-.231.653.05.895-.043.477-.18.328-1.02 1.16-.875.2.03.379.68.512.753.176.102.715-.035.898.028.332.113 0 .558 0 .832" fill="#bd651d" fill-rule="evenodd" id="change1_3"/><path d="M12.809 34.934l2.214-12.356 9.485-.566-2.914 12.136-8.785.786" fill="#3b435f" fill-rule="evenodd" id="change3_1"/><path d="M26.82 30.64c-.11 1.637-.742 4.633-.914 5.028-.176.395-1.277 1.105-2.75-1.961-.332-.687-.636-2.25-.636-2.25s-1.641.504-2.086-.14c-.098-.141.117-.11.09-.52-.016-.2-.227-.469-.204-.703.016-.168.235-.465.246-.625.028-.332-.132-.621-.07-.797.195-.543 1.363-.746 1.363-.746s-2.668-.711-2.55-1.301c.074-.363 3.906.727 3.949.477.031-.18.215-.797.441-1.055.551-.625 2.45-.817 2.871-.207.54.785.36 3.203.25 4.8" fill="#bd651d" fill-rule="evenodd" id="change1_4"/><g clip-path="url(#c)" id="change5_1"><path d="M37.336 42.996l13.906-3.906 11.516 3.48-1.04 9.555 4.29 1.61-.309 2.785 4.137 1.136-3.586 23.598-13.82 9.723-21.344-5.344.984-20.785-2.933-.653.898-8.777 7.106-2.555.195-9.867" fill="#f5ba53" fill-rule="evenodd"/></g><path d="M22.984 30.95a2.76 2.76 0 00-.172.124c-.054.043-.105.086-.164.13-.02.019-.148.112-.187.163-.023.035-.027.067-.02.082.012.028.04.043.07.031.016-.007.024-.02.032-.03v-.005c.016-.011.043-.023.074-.039l.125-.062.137-.082.082-.059c.066-.05.125-.101.184-.156.09-.078.18-.156.27-.23a.055.055 0 00.019-.083c-.02-.027-.055-.03-.082-.015a3.88 3.88 0 00-.368.23zm-1.433-.055c-.113.011-.23.007-.344.007-.039.004-.078.004-.113.004-.043.004-.082.008-.121.008-.063.008-.168 0-.254.008-.047.008-.094.015-.125.035a.05.05 0 00-.032.066c.012.028.04.043.07.032.024-.004.055 0 .087 0l.12.023c.052.008.102.012.138.016.066 0 .136.004.21.004.07-.004.145-.008.215-.02.153-.02.301-.05.426-.105a.064.064 0 00.035-.075c-.011-.03-.043-.046-.078-.039-.07.02-.152.032-.234.036zm-.024-.848c-.117.02-.234.035-.351.05l-.211.036a1.737 1.737 0 00-.14.02l-.278.035c-.004 0-.031.011-.047.015l-.004-.004.004.004c-.008 0-.012-.004-.012-.008a.038.038 0 00-.035-.004c-.027.008-.047.036-.039.063 0 .016.016.035.043.047.02.008.082.008.09.008.047.003.098.007.144.007h.145a2.594 2.594 0 00.488-.046 4.04 4.04 0 00.703-.207.057.057 0 00.04-.075c-.008-.031-.044-.047-.075-.039-.152.04-.308.07-.465.098zm-.785-.863c0 .011.012.003.02-.004h-.004c-.004.004-.008.004-.016.004zm1-.262c-.101.012-.203.027-.305.039l-.199.035-.328.059-.117.015c-.012.004-.047.004-.055.004-.027.004-.039.016-.043.02-.011.023-.02.043-.004.062.004.004.008.02.036.028h.015c0-.004.008-.004.016-.004h.008-.004a.243.243 0 01.039.011l.12.004c.06 0 .114 0 .173-.004l.172-.011c.058-.008.12-.012.183-.024a.985.985 0 00.121-.02c.094-.019.188-.038.278-.058.14-.027.277-.058.418-.086.035-.004.058-.031.054-.066-.008-.031-.035-.055-.066-.051a10.82 10.82 0 00-.512.047zm4.172 1.867a4.047 4.047 0 00-.5-.902 2.745 2.745 0 00-.285-.317c-.227-.222-.484-.414-.715-.64a2.784 2.784 0 01-.207-.227 2.73 2.73 0 01-.18-.254c-.015-.023-.043-.094-.07-.148v-.004c.043-.18.086-.363.098-.54a1.08 1.08 0 00-.004-.195.734.734 0 00-.09-.296.786.786 0 00-.168-.18c-.137-.11-.32-.215-.414-.293a.054.054 0 00-.074.004.052.052 0 00.004.078c.086.082.25.21.375.336a.65.65 0 01.117.144c.035.067.05.145.058.227.004.05.004.11.004.168-.004.164-.035.344-.062.516a2.933 2.933 0 00-.063.543c0 .03.028.058.063.058a.06.06 0 00.058-.058c.004-.094.028-.204.051-.317l.008.02c.055.093.113.187.176.273.062.09.133.172.207.254.222.234.469.438.695.668a2.8 2.8 0 01.266.297c.199.254.36.547.492.851.203.461.348.957.48 1.422.008.032.043.051.075.043.03-.008.05-.039.039-.07-.114-.477-.243-.988-.434-1.46zm-20.23 1.156c-.114.102-.223.211-.332.317-.07.074-.137.152-.207.226a3.43 3.43 0 00-.157.18c-.05.062-.101.125-.148.187-.027.036-.063.11-.09.165a.058.058 0 00-.012.02c-.031 0-.054.026-.05.054 0 .039.019.058.03.066a.07.07 0 00.063-.004c.016-.004.032-.023.055-.054.031-.043.082-.122.113-.153l.328-.336c.098-.101.2-.199.297-.3.149-.153.293-.31.442-.461.109-.106.218-.211.328-.313a.054.054 0 00.008-.082.054.054 0 00-.082-.008 7.49 7.49 0 00-.586.496zM10.598 8.98v.004c0 .004-.004.004-.004.004v.004s0-.004.004-.008zm.316.497c.043.09.082.18.129.257.02.028.016.063-.012.082-.027.02-.062.016-.082-.011a1.826 1.826 0 01-.215-.293 3.1 3.1 0 01-.09-.153c-.027-.054-.046-.109-.07-.156-.004-.02-.066-.14-.078-.191-.008-.04-.004-.063.004-.075a.052.052 0 01.074-.011.043.043 0 01.024.039c.004 0 .004 0 .004.004l-.004-.004v.012l.004-.008c.027.043.109.136.117.148.023.035.05.07.07.11.016.023.031.05.043.074.031.058.055.117.082.176zm3.024 1.77a2.917 2.917 0 01-.954-.188 4.074 4.074 0 01-1.383-.855c-.023-.024-.054-.024-.078 0a.054.054 0 000 .073 3.55 3.55 0 00.781.66 3.15 3.15 0 00.617.305c.31.106.599.149.845.16.437.012.75-.086.855-.156.031-.016.04-.05.02-.082-.016-.027-.055-.035-.082-.02-.082.051-.309.106-.621.102zm2.222-5.735a2.196 2.196 0 00-.223-.035c-.05-.004-.101-.004-.152-.004-.055 0-.11.004-.168.007-.055.004-.11.012-.164.024-.012 0-.11.035-.152.047-.008.004-.012.004-.016.004 0 .004-.004.004-.004.004-.004 0-.008.003-.008.003-.007.004-.011.008-.015.012-.008.012-.016.024-.016.031 0 .02.008.036.028.047.011.012.027.012.043.008.003.024.007.02.011 0h-.008l.008-.004v.004h.004c.035-.004.129-.02.137-.02.055 0 .105.005.156.008a2.56 2.56 0 01.332.028c.09.008.176.015.262.031.148.02.293.05.441.086a.057.057 0 00.074-.04c.012-.03-.007-.062-.035-.073a4.024 4.024 0 00-.535-.168zm-2.207 0c.016-.028.004-.063-.027-.078a1.336 1.336 0 00-.512-.164 2.395 2.395 0 00-.473-.02c-.109.008-.21.02-.312.035-.074.012-.152.02-.227.035-.054.008-.105.02-.156.032l-.125.035c-.012 0-.031.015-.043.023-.004 0-.008 0-.015.004-.028.008-.043.04-.036.066.004.02.02.032.036.036.011.007.023.007.039.004.011 0 .035-.016.046-.02l.122-.016.378-.02c.098-.007.2-.015.305-.019.145-.011.297-.02.445-.011.168.011.329.039.477.105.027.016.063.004.078-.027zm-.191 4.152l-.008.004h-.004c.004 0 .008 0 .012-.004zm.496-.055h-.004c-.004.024.059.004.07.008.02.016.035.028.035.047 0 .012.008.035-.02.055a.055.055 0 01-.062.015c-.011.004-.023.012-.03.012l-.102.004c-.051 0-.098.004-.145 0-.02-.004-.04-.004-.055-.008a.553.553 0 01-.086-.027l-.09-.031c-.003-.004-.015-.012-.023-.012-.004 0-.008.004-.008 0a.056.056 0 01-.023-.008c-.016 0-.02-.012-.024-.02-.015-.011-.007-.027-.007-.042 0-.012.011-.024.039-.04h.015a.288.288 0 01.047-.007l.102-.004h.082c.02.004.039.004.054.008.047.007.09.02.137.027zm-.055-.632c-.074-.008-.148-.02-.219-.024-.074-.008-.148-.008-.222-.012h-.34c-.016 0-.113-.007-.152-.004-.028 0-.043.008-.047.016-.016.016-.028.031-.02.05a.05.05 0 00.063.044h.004a.03.03 0 00.015-.008l-.008.008c.036.004.118.027.13.027.058.012.113.02.171.028l.172.023c.066.004.129.012.195.016.043.004.086.011.13.011l.304.024.457.035a.06.06 0 00.066-.05.058.058 0 00-.05-.067c-.22-.04-.434-.082-.649-.117zm.89-1.364c-.027-.062-.062-.117-.093-.18a.062.062 0 00-.078-.03.062.062 0 00-.031.077c.02.063.05.122.074.188a.37.37 0 01.02.07c.003.02.003.04.003.055a.23.23 0 01-.008.055c-.015.078-.03.117-.07.125-.015.004-.031 0-.05-.004-.024-.004-.051-.016-.079-.024a1.862 1.862 0 00-.199-.05c-.066-.004-.129.011-.191.011-.016 0-.036 0-.051-.004-.035-.011-.14-.093-.195-.117-.032-.008-.051-.012-.067-.008-.027.008-.043.04-.035.067a.047.047 0 00.047.039c0 .004 0 .004.004.004l-.004-.004h.02c-.005 0-.012.004-.016.004.031.02.078.066.117.101.027.028.059.047.07.055a.328.328 0 00.102.027c.055.008.113-.004.172.008.066.012.14.047.203.063a.36.36 0 00.199.015c.086-.027.164-.094.188-.281a.318.318 0 00.003-.086.721.721 0 00-.015-.09.575.575 0 00-.04-.086zm1.032-1.199a1.06 1.06 0 01-.285.274.477.477 0 01-.2.074.283.283 0 01-.124-.016.194.194 0 01-.086-.05.943.943 0 01-.13-.157l-.07-.101c-.011-.016-.035-.06-.046-.067-.024-.012-.04-.012-.055-.004-.012.004-.031.012-.035.047 0 .016.004.035.02.043 0 .012.007.031.011.04l.05.112c.036.07.071.145.126.207a.444.444 0 00.152.114.52.52 0 00.168.027.502.502 0 00.234-.074c.16-.094.29-.258.368-.403a.057.057 0 00-.016-.082c-.027-.02-.062-.011-.082.016zm-2.824.125a.372.372 0 01-.188.024c-.039-.008-.082-.016-.125-.036a1.049 1.049 0 01-.25-.164l-.101-.101c0-.02-.012-.035-.032-.043-.023-.016-.043-.004-.054.004-.016.007-.024.023-.024.047 0 .015.028.074.028.078.008.02.02.035.027.047a.977.977 0 00.172.199.687.687 0 00.156.105.51.51 0 00.145.047.466.466 0 00.234-.016.58.58 0 00.195-.113.98.98 0 00.196-.242.055.055 0 00-.016-.082c-.023-.02-.062-.012-.078.016a.792.792 0 01-.285.23zm-3.114-.46a1.174 1.174 0 00-.148-.165c-.035-.031-.074-.059-.11-.086l-.167-.117-.098-.07c-.016-.008-.035-.04-.043-.043-.023-.012-.043-.012-.055-.004a.048.048 0 00-.03.058c0 .016.01.028.023.04.004.011.02.03.023.035l.09.09.203.199c0 .007-.008.007-.008.02 0 .003.012.023.016.038l-.008.07a.416.416 0 01-.035.098 1.62 1.62 0 01-.07.145 1.779 1.779 0 00-.079.148c-.015.04-.03.078-.043.121a.484.484 0 00.032.328c.062.133.18.239.3.336a.06.06 0 00.082-.004.058.058 0 00-.003-.086 1.122 1.122 0 01-.196-.257.327.327 0 01-.027-.266.527.527 0 01.031-.094c.024-.05.043-.101.067-.152.015-.047.035-.094.046-.14a.764.764 0 00.028-.16c.008.01.02.023.027.034.059.078.11.157.152.242.07.149.122.305.157.473a.06.06 0 00.066.05.062.062 0 00.05-.07 2.08 2.08 0 00-.112-.523 1.158 1.158 0 00-.16-.289zM10 4.46l.195.195c.032.028.063.059.094.086.05.047.102.09.149.133.156.133.296.254.355.328a.06.06 0 00.082.012c.027-.02.035-.055.016-.082a2.906 2.906 0 00-.27-.328 9.297 9.297 0 00-.195-.2c-.035-.03-.067-.062-.102-.093-.035-.028-.07-.059-.105-.086a3.769 3.769 0 00-.348-.246c-.023-.016-.059-.012-.074.015a.056.056 0 00.015.075c.02.015.09.09.188.19zm-.184.086c-.004-.008-.004-.012-.007-.008v.004c.004 0 .004 0 .007.004zm-.097.004c-.008.008-.012.031.004.054a.125.125 0 00.023.028l.156.14.258.247c.055.05.106.101.156.152.079.078.153.156.223.238.082.094.156.188.219.29.02.03.055.038.082.023a.062.062 0 00.023-.082 2.583 2.583 0 00-.25-.407 3.478 3.478 0 00-.183-.222 2.05 2.05 0 00-.285-.246 1.518 1.518 0 00-.153-.11 3.59 3.59 0 01-.176-.11c0 .005 0 .013.004.016l-.011-.019v-.004c-.008-.004-.012-.012-.02-.016a.053.053 0 00-.07.028zm-.004.281c.039.035.137.164.219.262.043.05.082.09.097.113.047.047.09.094.13.14.066.071.128.141.19.215.067.086.13.172.188.262.02.028.055.04.082.024a.06.06 0 00.024-.082 2.606 2.606 0 00-.36-.57 3.485 3.485 0 00-.117-.122l-.184-.168a2.928 2.928 0 00-.199-.16c-.023-.02-.055-.016-.074.008a.06.06 0 00.004.078zm8.078.453c-.406.063-1.48-.234-2.66-.238-1.258-.008-2.621.27-2.871.223-.489-.086-.883-.665-.883-.665l-1.008-.37c.055.046.106.085.125.1a2.168 2.168 0 01.273.266c.083.094.16.196.231.301a.058.058 0 01-.012.082.058.058 0 01-.082-.011 3.952 3.952 0 00-.258-.254c-.062-.055-.128-.11-.191-.164a1.66 1.66 0 00-.086-.07c-.023-.024-.094-.09-.168-.16-.055-.06-.113-.118-.16-.165-.035-.031-.059-.058-.074-.066-.004 0-.004-.008-.004-.008l-.242-.09s-.254-2.25 1.59-3.492c1.718-1.156 4.789-.082 5.445.789.586.777.344 3.039.508 3.18.168.14.847.757.527.812" fill="#3b435f" fill-rule="evenodd" id="change3_2"/><path d="M22.352 82.422c-.024-.024-.063-.02-.086.004-.434.5-1.016.808-1.653.996-.558.168-1.16.238-1.746.258-.41.015-.812.007-1.187-.016-.246-.012-.496-.031-.742-.047-.247-.02-.493-.043-.739-.07l-.5-.059c-.047-.008-.14 0-.195-.008a.07.07 0 00-.02-.027c-.023-.02-.054-.016-.074.008a.066.066 0 00-.02.062c.005.024.024.051.067.063.05.012.168.008.223.016l.5.082c.246.035.496.066.742.093.25.028.496.047.746.067.379.027.789.043 1.203.027.606-.023 1.223-.105 1.793-.289.656-.21 1.25-.55 1.691-1.078.024-.027.02-.063-.003-.082zM8.758 84.203c-.297.336-.863.5-1.485.563a7.197 7.197 0 01-1.48-.012c-.387-.043-.727-.106-.961-.188a6.899 6.899 0 01-.574-.218 9.003 9.003 0 01-.555-.262c-.101-.055-.308-.078-.433-.117a.328.328 0 00-.047-.016l-.016-.012s-.004-.004-.008-.004l.008-.007c.02-.024.012-.059-.008-.078-.027-.016-.058-.012-.078.011a.12.12 0 00-.031.082.14.14 0 00.074.102c.102.062.36.09.473.156a7.596 7.596 0 001.136.535c.243.086.594.164 1 .207a6.848 6.848 0 001.52-.011c.66-.086 1.25-.29 1.555-.657.02-.023.02-.062-.008-.082a.057.057 0 00-.082.008zm7.156-36.34a.062.062 0 00-.082.024c-.273.543-.621 1.066-.965 1.593-.23.348-.46.7-.668 1.055a7.321 7.321 0 00-.594 1.21c-.085.224-.16.454-.226.685-.07.23-.129.46-.184.691l-.113.48c-.012.055-.05.153-.074.22a.176.176 0 00-.012.081c.008.028.02.043.04.051.015.004.038.008.07-.016.027-.015.03-.046.015-.074-.004 0-.004-.004-.008-.008l.012-.027c.027-.066.063-.148.078-.195l.125-.477c.067-.226.133-.453.207-.68a10.4 10.4 0 01.242-.663 7.03 7.03 0 01.332-.72c.079-.156.164-.308.254-.464.203-.356.426-.707.645-1.059.336-.539.668-1.074.933-1.629.012-.027 0-.066-.027-.078zM4.464 49.02c.005 0 .005.003.005.007l.004.004-.004-.004v-.007zm-.077.07c-.016-.012-.035-.04-.008-.078a.207.207 0 01.043-.043c.098-.074.351-.242.371-.254.144-.11.289-.223.426-.344a6.02 6.02 0 00.39-.383 7.84 7.84 0 00.45-.508c.218-.257.43-.527.625-.804.332-.461.632-.946.906-1.438a.06.06 0 01.078-.027.06.06 0 01.027.082 14.858 14.858 0 01-.867 1.484 9.151 9.151 0 01-1.09 1.34 5.353 5.353 0 01-.87.707c-.016.012-.282.164-.38.235-.004.004-.011.004-.015.007v-.015c0 .008 0 .011-.004.02-.004.003-.008.003-.004.007l-.004.004c-.016.023-.05.027-.074.008zm13.218-4.223c.008-.004.012-.008.004-.012 0-.003 0 .004-.004.008zm-.07.028c-.027-.012-.039-.043-.027-.07.015-.052.047-.067.07-.067.027-.004.07.015.102.066.062.094.136.309.203.399.101.148.21.293.32.437.11.14.219.281.336.422.133.16.273.32.422.477.215.23.445.453.687.664a6.52 6.52 0 001.313.898c.027.012.039.047.027.078-.015.028-.05.043-.082.028a6.548 6.548 0 01-1.37-.872 7.226 7.226 0 01-1.141-1.16 9.157 9.157 0 01-.325-.441c-.105-.149-.207-.3-.304-.453-.047-.074-.098-.223-.145-.336a.741.741 0 00-.035-.078.049.049 0 01-.05.008zM4.47 49.07l.004-.004c0 .012 0 .02-.008.012 0-.004.004-.004.004-.008" fill="#fce8bc" fill-rule="evenodd" id="change4_2"/><path d="M14.223.543c-.012 0-.016.004-.016.004-.02.012-.027.027-.027.035-.004.023 0 .047.027.059.012.007.027.007.043.004.008.027.012.02.012-.004h-.004l.004-.004V.64h.015c.07-.012.246-.04.27-.036a2.6 2.6 0 01.305.043 3.572 3.572 0 01.664.227c.18.078.355.172.523.281.281.184.54.407.73.668.02.028.06.031.083.016a.062.062 0 00.015-.086 2.977 2.977 0 00-.726-.742 3.06 3.06 0 00-.547-.317 2.97 2.97 0 00-.395-.14 2.91 2.91 0 00-.32-.067 1.85 1.85 0 00-.328-.02 3.68 3.68 0 00-.297.063.086.086 0 00-.031.012zm-2.207 1.574a7.93 7.93 0 01.27-.363 8.53 8.53 0 01.296-.344 4.128 4.128 0 011.055-.844c.027-.011.039-.046.023-.07-.012-.027-.047-.039-.07-.023a4.04 4.04 0 00-1.137.816 5.32 5.32 0 00-.316.344 6.698 6.698 0 00-.282.375 6.659 6.659 0 00-.464.808 6.058 6.058 0 00-.461 1.317c-.008.031.011.066.043.07a.058.058 0 00.07-.043c.11-.41.281-.844.5-1.265a7.08 7.08 0 01.473-.778zM13.32.145V.14v.007-.003c0 .015.004.046.008.074.004.02.012.035.016.047.02.035.047.062.074.086a.47.47 0 00.133.078c.023.008.066.023.12.03a1.133 1.133 0 00.46-.012c.13-.034.22-.104.217-.202a.056.056 0 00-.055-.062.056.056 0 00-.063.054c-.003.02-.023.028-.043.04a.475.475 0 01-.156.019c-.086.004-.18-.008-.261-.016-.07-.008-.133-.011-.16-.02-.036-.011-.07-.019-.102-.038a.11.11 0 01-.051-.036c-.012-.011-.023-.054-.031-.07-.004-.015-.008-.023-.012-.023-.027-.035-.055-.032-.074-.02-.004.004-.024.012-.024.043-.004.008 0 .016.004.024-.004 0-.004.004 0 .004zm3.95 4.367c-.06-.028-.11-.063-.165-.098-.21-.152-.402-.348-.632-.48a5.09 5.09 0 00-1.457-.567 3.466 3.466 0 00-.942-.062 2.79 2.79 0 00-.625.117c-.21.066-.418.144-.617.23-.3.13-.594.27-.89.399-.087.039-.172.074-.258.11-.09.034-.176.07-.266.1-.05.016-.148.055-.195.071-.004-.004-.008 0-.012 0h.004-.004v.004a.054.054 0 00-.043.008c-.016.02-.016.039-.016.047 0 .02.008.035.032.046a.072.072 0 00.05 0c.047-.007.164-.046.223-.066.09-.027.18-.055.27-.086.093-.035.18-.066.27-.101.3-.122.597-.25.901-.368.2-.078.399-.152.606-.21.238-.075.484-.11.73-.118.25-.008.5.012.75.059.493.094.977.281 1.418.515.23.122.422.31.633.454.059.039.117.074.18.101.027.016.066.004.078-.023a.062.062 0 00-.023-.082zm-6.06-.18v.004h-.003c0-.004.004 0 .004-.004" fill="#fce8bc" fill-rule="evenodd" id="change4_3"/><path d="M61.613 62.25l-1.187 13.57 3.496-2.11.726-13.062zM42.59 85.598l5.566 1.582.778-11.375-5.621-.868zm2.273-30.118l-3.332 2.782-.68 6.347-3.945-.98.68-6.285 3.773-2.782 3.504.918" fill="#fce8bc" fill-rule="evenodd" id="change4_4"/><g clip-path="url(#d)" id="change1_5"><path d="M49.371 42.309l-.008-.004c.004.004.008.011.012.008zm-4.66 2.68a970.382 970.382 0 014.055 1.016c1.203.3 2.05.518 2.21.558l4.626-1.602c.054-.02.109-.04.168-.059a8.58 8.58 0 00-1.329-.859c-.62-.344-1.273-.598-1.937-.824-1.008-.336-2.04-.594-3.055-.914l-.011.015c-.004 0-.02.012-.047 0-.008 0-.012-.004-.016-.008l.004-.003s-.008-.004-.008-.008c-.004.004-.004.004-.008.004-.242.093-.488.187-.734.289-.707.285-1.461.57-2.152.941a5.652 5.652 0 00-1.266.89c-.18.173-.336.372-.5.563zm4.39-3.071c0-.004.004-.012.004-.02a.263.263 0 00.012-.07l.012-.473c0-.312 0-.66-.066-.988a1.695 1.695 0 00-.231-.594.72.72 0 00-.23-.23c-.086-.05-.18-.074-.278-.035a.4.4 0 00-.207.222.938.938 0 00-.07.333c-.004.289.078.558.207.804.129.254.309.485.5.696.07.078.144.156.219.234l.129.121zm.239-.086l.32-.293a7.38 7.38 0 00.555-.55c.11-.13.215-.266.3-.415.051-.082.11-.191.137-.304a.248.248 0 00-.007-.176c-.008-.024-.02-.04-.036-.047-.027-.012-.062 0-.101.016-.137.058-.281.207-.336.265a3.097 3.097 0 00-.313.43 5.61 5.61 0 00-.37.719 3.305 3.305 0 00-.09.207c-.02.046-.044.097-.06.148zm6.582 3.191c-.086.032-.18.063-.266.094-2.468.871-4.644 1.633-4.644 1.633a.09.09 0 01-.055.004l-.055-.012a384.31 384.31 0 01-.355 2.969l-.125.992-.129.988c-.09.676-.188 1.352-.273 1.98a696.04 696.04 0 01-.418 2.966c0 .011-.016.011-.024.02.375.1.625.171.711.19.273-.113 2.32-.98 4.625-1.956.45-.188.906-.38 1.363-.575.13-.78.262-1.566.38-2.351.077-.54.156-1.082.222-1.63.082-.679.219-1.39.262-2.097a5.303 5.303 0 00-.078-1.386 3.055 3.055 0 00-.704-1.391 4.205 4.205 0 00-.437-.438zm-18.945-1.84c-.032-.007-.047-.035-.04-.066a.056.056 0 01.063-.039s2.305.567 5.047 1.246c.797.2 1.629.406 2.457.614.187-.223.363-.454.574-.653a5.996 5.996 0 011.305-.918c.699-.375 1.46-.656 2.18-.941.164-.067.328-.125.492-.188-.07-.004-.14-.011-.184-.008-.164.008-.332.02-.496.04-.164.023-.328.046-.488.078-.34.062-.66.16-.98.25a9.88 9.88 0 01-1.005.242 4.17 4.17 0 01-.89.066 3.46 3.46 0 01-.63-.078 1.376 1.376 0 01-.402-.16.057.057 0 01-.02-.078.055.055 0 01.08-.024c.116.063.241.106.37.133.2.043.41.051.61.051a4.09 4.09 0 00.851-.086c.332-.066.656-.164.98-.254.329-.09.66-.176 1.004-.23a5.53 5.53 0 01.504-.059c.16-.016.317-.02.473-.02a14.89 14.89 0 01-1.047-.41c-.332-.152-.75-.324-1.133-.527a3.66 3.66 0 01-.703-.465c-.023-.02-.023-.054-.004-.078a.055.055 0 01.075-.004c.19.164.43.309.687.442.383.195.8.363 1.133.507.394.176.797.32 1.207.457-.055-.046-.106-.097-.156-.144a4.36 4.36 0 01-.23-.234c-.24-.258-.466-.551-.606-.875a1.728 1.728 0 01-.153-.708c0-.148.032-.324.114-.468a.496.496 0 01.25-.23.421.421 0 01.343.003.889.889 0 01.364.313c.129.195.21.418.257.652.075.34.079.7.079 1.023v.051l.004-.008a5.79 5.79 0 01.382-.742 3.5 3.5 0 01.332-.457c.078-.086.317-.308.5-.344a.254.254 0 01.18.028.284.284 0 01.117.133c.04.093.04.195.016.3a1.297 1.297 0 01-.164.356c-.094.156-.203.3-.324.437a5.96 5.96 0 01-.57.563l-.302.273c.032-.008.067-.011.102-.015a1.78 1.78 0 01.203-.012c.035 0 .07.004.11.008.187-.07.37-.145.558-.211 1.477-.528 2.969-1.012 4.434-1.574.027-.012.062.004.07.03.012.028-.004.06-.031.071-1.531.606-3.094 1.137-4.64 1.711.003.004.003.004.007.004.246.035.492.086.734.121.637.094 1.29.156 1.938.133.426-.016.855-.07 1.27-.18.199-.054.437-.11.652-.199.14-.062.27-.133.37-.23.024-.02.063-.02.083.003a.057.057 0 010 .083c-.11.109-.25.19-.406.257-.22.094-.461.157-.664.211a5.89 5.89 0 01-1.301.2c-.657.03-1.317-.032-1.965-.118-.242-.035-.488-.082-.734-.117a3.943 3.943 0 00-.372-.023c-.007 0-.011.004-.02.004-.081.03-.163.066-.245.097.972.29 1.965.531 2.93.848.675.219 1.34.48 1.972.824.508.281 1.008.59 1.445.957 3.145-1.09 6.602-2.281 6.602-2.281.031-.012.066.004.074.035a.06.06 0 01-.035.078l-6.496 2.293c.133.121.262.246.379.383.351.414.613.894.734 1.48.094.465.106.946.07 1.43-.046.711-.187 1.426-.277 2.11a56.64 56.64 0 01-.238 1.632c-.121.758-.254 1.516-.387 2.274l5.5-2.317a.06.06 0 01.078.032.062.062 0 01-.03.078s-3.735 1.605-6.974 2.992l-4.648 1.992a.114.114 0 01-.062.004s-.848-.23-2.114-.57c-.898-.246-2.008-.547-3.172-.868-1.047-.285-2.14-.585-3.168-.87-2.582-.712-4.754-1.313-4.754-1.313-.027-.008-.046-.035-.035-.067.004-.027.035-.042.063-.035 0 0 2.18.575 4.765 1.266 1.032.273 2.125.566 3.176.844 1.168.316 2.278.613 3.176.855l1.285.348c0-.004-.008-.004-.008-.012 0 0 .16-1.309.368-2.973.078-.628.164-1.304.25-1.98.043-.332.086-.664.132-.992.047-.34.09-.672.133-.989.238-1.664.43-2.968.43-2.968s.004 0 .004-.004a234.66 234.66 0 01-2.082-.524c-.953-.238-2.125-.539-3.36-.851-.254-.067-.52-.133-.78-.203a9.721 9.721 0 00-.915 1.324c-.629 1.125-1.07 2.379-1.41 3.59a17.47 17.47 0 00-.363 1.597 24.909 24.909 0 00-.235 1.622c-.023.199-.11.527-.12.804a.733.733 0 00.042.32.062.062 0 01-.031.079.064.064 0 01-.078-.028.852.852 0 01-.059-.375c.012-.28.094-.613.117-.812a25.23 25.23 0 01.223-1.633c.094-.543.21-1.082.355-1.613.336-1.23.77-2.5 1.403-3.64.25-.458.547-.88.867-1.286-.797-.203-1.598-.41-2.367-.606-2.735-.703-5.031-1.296-5.031-1.296zM69.699 57.86s-.57.293-1.293.672c-.273.14-.566.297-.86.453l-.425.23c-.144.079-.285.161-.422.24-.672.378-1.187.679-1.242.71l.219-3.55a.064.064 0 00-.059-.067.063.063 0 00-.062.058l-.239 3.63c-.453.234-5.355 2.745-9.62 4.94a3133.406 3133.406 0 00-6.407 3.294c-.352-.07-3.418-.703-6.863-1.41a6634.4 6634.4 0 00-10.352-2.102c-.027-.008-.054.012-.062.04-.004.03.015.058.043.062a6906.446 6906.446 0 0017.227 3.61.101.101 0 00.066-.013s1.875-.965 4.34-2.242c-.047.707-.25 3.625-.493 7.211-.054.793-.105 1.621-.164 2.46-.05.81-.101 1.638-.156 2.462-.105 1.683-.207 3.367-.3 4.922-.25 4.136-.442 7.383-.442 7.383-.004.035.023.062.054.066a.063.063 0 00.063-.059l.496-7.379c.102-1.558.215-3.238.324-4.921.051-.825.106-1.649.153-2.461.054-.84.105-1.668.152-2.461.223-3.723.395-6.723.426-7.282l1.976-1.02c4.473-2.315 9.633-4.995 9.633-4.995.024-.012.04-.031.04-.055v-.027c.015.004.023.02.038.012 0 0 .57-.286 1.293-.66.14-.075.285-.15.434-.227.14-.074.281-.153.426-.23a261.013 261.013 0 002.113-1.188.062.062 0 00.023-.082.057.057 0 00-.078-.024zm-32.726-.492c-3.739-.926-6.88-1.71-6.88-1.71a.053.053 0 01-.038-.067c.004-.028.035-.047.062-.04 0 0 3.149.759 6.895 1.665 1.488.36 3.074.746 4.593 1.113 1.688.41 3.29.8 4.59 1.121 1.668.406 2.836.696 3.032.742.316-.12 3.265-1.27 6.582-2.558 4.601-1.79 9.918-3.848 9.918-3.848a.06.06 0 01.078.035.06.06 0 01-.032.075s-5.308 2.09-9.902 3.894l-6.601 2.594a.149.149 0 01-.06.004l-3.058-.75c-1.3-.32-2.906-.715-4.59-1.133a2237.8 2237.8 0 01-4.59-1.137" fill="#bd651d"/></g></svg>