<svg xmlns="http://www.w3.org/2000/svg" height="262.3" version="1" viewBox="110.2 128.6 262.3 262.3" width="262.3"><path d="M311.594 271.164c-.09.008-.18.008-.27.008a4.47 4.47 0 01-4.457-4.207 77.435 77.435 0 00-21.047-48.61 77.415 77.415 0 00-47.418-23.617 4.47 4.47 0 01-3.937-4.945c.277-2.453 2.5-4.23 4.945-3.941 20.168 2.28 38.953 11.64 52.899 26.351 13.945 14.711 22.285 33.973 23.484 54.234a4.47 4.47 0 01-4.2 4.727zm-74.387-53.039c.277-2.45 2.48-4.203 4.95-3.938a51.423 51.423 0 0131.5 15.696 51.433 51.433 0 0113.988 32.297 4.47 4.47 0 01-4.2 4.726c-.09.008-.18.008-.27.008a4.464 4.464 0 01-4.456-4.203 42.485 42.485 0 00-11.551-26.676 42.492 42.492 0 00-26.023-12.965c-2.45-.273-4.211-2.492-3.938-4.945zm67.191 110.71c-.132.138-5.324 5.044-5.464 5.18-9.614 9.243-24.72 11.079-37.258 8.141-4.578-1.07-9.035-2.61-13.348-4.48-19.45-8.453-37.902-23.406-52.723-39.13-14.91-15.644-28.851-34.866-36.25-54.741-1.64-4.407-2.937-8.942-3.765-13.57-2.262-12.676.379-27.66 10.125-36.766.144-.137 5.32-5.055 5.465-5.184 9.656-8.476 17.91 2.278 25.605 10.543 6.574 7.059 17.621 18.68 15.785 29.293-1.015 5.895-7.277 10.203-9.453 15.984-2.773 7.372-1.465 14.715 3.188 21.02 3.117 4.219 6.914 8.715 10.965 12.887 3.949 4.265 8.234 8.3 12.28 11.636 6.048 4.985 13.31 6.688 20.821 4.309 5.887-1.863 10.524-7.883 16.465-8.586 10.695-1.266 21.71 10.39 28.406 17.332 7.84 8.129 18.14 16.942 9.156 26.133zm-63.05-200.276c-72.426 0-131.141 58.714-131.141 131.144 0 72.426 58.715 131.14 131.14 131.14 72.43 0 131.141-58.714 131.141-131.14 0-72.43-58.71-131.144-131.14-131.144" fill="#299740" id="change1_1"/></svg>